<?xml version="1.0" encoding="UTF-8" standalone="no"?>
<!DOCTYPE svg PUBLIC "-//W3C//DTD SVG 1.1//EN"
 "http://www.w3.org/Graphics/SVG/1.1/DTD/svg11.dtd">
<!-- Generated by graphviz version 2.43.0 (0)
 -->
<!-- Title: %3 Pages: 1 -->
<svg width="1431pt" height="731pt"
 viewBox="0.00 0.00 1430.50 731.00" xmlns="http://www.w3.org/2000/svg" xmlns:xlink="http://www.w3.org/1999/xlink">
<g id="graph0" class="graph" transform="scale(1 1) rotate(0) translate(4 727)">
<title>%3</title>
<polygon fill="white" stroke="transparent" points="-4,4 -4,-727 1426.5,-727 1426.5,4 -4,4"/>
<!-- ValidationError -->
<g id="node1" class="node">
<title>ValidationError</title>
<polygon fill="none" stroke="black" points="295,-0.5 295,-181.5 422,-181.5 422,-0.5 295,-0.5"/>
<text text-anchor="middle" x="358.5" y="-166.3" font-family="Times,serif" font-size="14.00">ValidationError</text>
<polyline fill="none" stroke="black" points="295,-158.5 422,-158.5 "/>
<text text-anchor="start" x="303" y="-143.3" font-family="Times,serif" font-size="14.00">errorCode</text>
<text text-anchor="start" x="303" y="-128.3" font-family="Times,serif" font-size="14.00">message</text>
<text text-anchor="start" x="303" y="-113.3" font-family="Times,serif" font-size="14.00">component</text>
<text text-anchor="start" x="303" y="-98.3" font-family="Times,serif" font-size="14.00">source</text>
<text text-anchor="start" x="303" y="-83.3" font-family="Times,serif" font-size="14.00">severity</text>
<text text-anchor="start" x="303" y="-68.3" font-family="Times,serif" font-size="14.00">metadata</text>
<text text-anchor="start" x="303" y="-53.3" font-family="Times,serif" font-size="14.00">trace</text>
<text text-anchor="start" x="303" y="-38.3" font-family="Times,serif" font-size="14.00">toString()</text>
<text text-anchor="start" x="303" y="-23.3" font-family="Times,serif" font-size="14.00">toJSON()</text>
<text text-anchor="start" x="303" y="-8.3" font-family="Times,serif" font-size="14.00">withMetadata()</text>
</g>
<!-- ImplementationMismatchError -->
<g id="node2" class="node">
<title>ImplementationMismatchError</title>
<polygon fill="none" stroke="black" points="11,-271 11,-407 250,-407 250,-271 11,-271"/>
<text text-anchor="middle" x="130.5" y="-391.8" font-family="Times,serif" font-size="14.00">ImplementationMismatchError</text>
<polyline fill="none" stroke="black" points="11,-384 250,-384 "/>
<text text-anchor="start" x="19" y="-368.8" font-family="Times,serif" font-size="14.00">functionalImplementation</text>
<text text-anchor="start" x="19" y="-353.8" font-family="Times,serif" font-size="14.00">oopImplementation</text>
<text text-anchor="start" x="19" y="-338.8" font-family="Times,serif" font-size="14.00">expectedBehavior</text>
<text text-anchor="start" x="19" y="-323.8" font-family="Times,serif" font-size="14.00">actualBehavior</text>
<text text-anchor="start" x="19" y="-308.8" font-family="Times,serif" font-size="14.00">diff</text>
<text text-anchor="start" x="19" y="-293.8" font-family="Times,serif" font-size="14.00">identifyDiscrepancy()</text>
<text text-anchor="start" x="19" y="-278.8" font-family="Times,serif" font-size="14.00">suggestFix()</text>
</g>
<!-- ImplementationMismatchError&#45;&gt;ValidationError -->
<g id="edge1" class="edge">
<title>ImplementationMismatchError&#45;&gt;ValidationError</title>
<path fill="none" stroke="black" d="M192.8,-270.78C222.22,-239.04 257.47,-201.01 287.87,-168.2"/>
<polygon fill="none" stroke="black" points="290.46,-170.57 294.69,-160.85 285.32,-165.81 290.46,-170.57"/>
</g>
<!-- ValidationSystemError -->
<g id="node3" class="node">
<title>ValidationSystemError</title>
<polygon fill="none" stroke="black" points="268.5,-286 268.5,-392 448.5,-392 448.5,-286 268.5,-286"/>
<text text-anchor="middle" x="358.5" y="-376.8" font-family="Times,serif" font-size="14.00">ValidationSystemError</text>
<polyline fill="none" stroke="black" points="268.5,-369 448.5,-369 "/>
<text text-anchor="start" x="276.5" y="-353.8" font-family="Times,serif" font-size="14.00">phase</text>
<text text-anchor="start" x="276.5" y="-338.8" font-family="Times,serif" font-size="14.00">context</text>
<text text-anchor="start" x="276.5" y="-323.8" font-family="Times,serif" font-size="14.00">stackTrace</text>
<text text-anchor="start" x="276.5" y="-308.8" font-family="Times,serif" font-size="14.00">recoverable</text>
<text text-anchor="start" x="276.5" y="-293.8" font-family="Times,serif" font-size="14.00">recovery()</text>
</g>
<!-- ValidationSystemError&#45;&gt;ValidationError -->
<g id="edge2" class="edge">
<title>ValidationSystemError&#45;&gt;ValidationError</title>
<path fill="none" stroke="black" d="M358.5,-285.83C358.5,-258.6 358.5,-224.33 358.5,-192.22"/>
<polygon fill="none" stroke="black" points="362,-191.88 358.5,-181.88 355,-191.88 362,-191.88"/>
</g>
<!-- ErrorTracker -->
<g id="node4" class="node">
<title>ErrorTracker</title>
<polygon fill="none" stroke="black" points="586.5,-256 586.5,-422 760.5,-422 760.5,-256 586.5,-256"/>
<text text-anchor="middle" x="673.5" y="-406.8" font-family="Times,serif" font-size="14.00">ErrorTracker</text>
<polyline fill="none" stroke="black" points="586.5,-399 760.5,-399 "/>
<text text-anchor="start" x="594.5" y="-383.8" font-family="Times,serif" font-size="14.00">errors</text>
<text text-anchor="start" x="594.5" y="-368.8" font-family="Times,serif" font-size="14.00">addError()</text>
<text text-anchor="start" x="594.5" y="-353.8" font-family="Times,serif" font-size="14.00">getErrors()</text>
<text text-anchor="start" x="594.5" y="-338.8" font-family="Times,serif" font-size="14.00">hasErrors()</text>
<text text-anchor="start" x="594.5" y="-323.8" font-family="Times,serif" font-size="14.00">getErrorTypeCounts()</text>
<text text-anchor="start" x="594.5" y="-308.8" font-family="Times,serif" font-size="14.00">generateSummary()</text>
<text text-anchor="start" x="594.5" y="-293.8" font-family="Times,serif" font-size="14.00">filterByComponent()</text>
<text text-anchor="start" x="594.5" y="-278.8" font-family="Times,serif" font-size="14.00">filterByErrorCode()</text>
<text text-anchor="start" x="594.5" y="-263.8" font-family="Times,serif" font-size="14.00">groupByComponent()</text>
</g>
<!-- ParserError -->
<g id="node5" class="node">
<title>ParserError</title>
<polygon fill="none" stroke="black" points="466.5,-308.5 466.5,-369.5 568.5,-369.5 568.5,-308.5 466.5,-308.5"/>
<text text-anchor="middle" x="517.5" y="-354.3" font-family="Times,serif" font-size="14.00">ParserError</text>
<polyline fill="none" stroke="black" points="466.5,-346.5 568.5,-346.5 "/>
<text text-anchor="start" x="474.5" y="-331.3" font-family="Times,serif" font-size="14.00">position</text>
<text text-anchor="start" x="474.5" y="-316.3" font-family="Times,serif" font-size="14.00">context</text>
</g>
<!-- ParserError&#45;&gt;ValidationError -->
<g id="edge3" class="edge">
<title>ParserError&#45;&gt;ValidationError</title>
<path fill="none" stroke="black" d="M504.78,-308.5C493.59,-283.64 476.2,-247.51 457.5,-218 448.6,-203.95 438.46,-189.6 428.14,-175.84"/>
<polygon fill="none" stroke="black" points="430.89,-173.67 422.06,-167.82 425.31,-177.9 430.89,-173.67"/>
</g>
<!-- ValidationAdapter -->
<g id="node6" class="node">
<title>ValidationAdapter</title>
<polygon fill="none" stroke="black" points="775,-496.5 775,-722.5 984,-722.5 984,-496.5 775,-496.5"/>
<text text-anchor="middle" x="879.5" y="-707.3" font-family="Times,serif" font-size="14.00">ValidationAdapter</text>
<polyline fill="none" stroke="black" points="775,-699.5 984,-699.5 "/>
<text text-anchor="start" x="783" y="-684.3" font-family="Times,serif" font-size="14.00">dataModel</text>
<text text-anchor="start" x="783" y="-669.3" font-family="Times,serif" font-size="14.00">behaviorModel</text>
<text text-anchor="start" x="783" y="-654.3" font-family="Times,serif" font-size="14.00">stateMachine</text>
<text text-anchor="start" x="783" y="-639.3" font-family="Times,serif" font-size="14.00">errorTracker</text>
<text text-anchor="start" x="783" y="-624.3" font-family="Times,serif" font-size="14.00">implementationMode</text>
<text text-anchor="start" x="783" y="-609.3" font-family="Times,serif" font-size="14.00">adapt()</text>
<text text-anchor="start" x="783" y="-594.3" font-family="Times,serif" font-size="14.00">registerRule()</text>
<text text-anchor="start" x="783" y="-579.3" font-family="Times,serif" font-size="14.00">validate()</text>
<text text-anchor="start" x="783" y="-564.3" font-family="Times,serif" font-size="14.00">compareImplementations()</text>
<text text-anchor="start" x="783" y="-549.3" font-family="Times,serif" font-size="14.00">createFromFunctional()</text>
<text text-anchor="start" x="783" y="-534.3" font-family="Times,serif" font-size="14.00">createFromClass()</text>
<text text-anchor="start" x="783" y="-519.3" font-family="Times,serif" font-size="14.00">handleValidationError()</text>
<text text-anchor="start" x="783" y="-504.3" font-family="Times,serif" font-size="14.00">getErrorTracker()</text>
</g>
<!-- ValidationAdapter&#45;&gt;ErrorTracker -->
<g id="edge4" class="edge">
<title>ValidationAdapter&#45;&gt;ErrorTracker</title>
<path fill="none" stroke="black" d="M793.33,-496.19C776.42,-474.14 758.88,-451.29 742.62,-430.09"/>
<polygon fill="none" stroke="black" points="745.31,-427.85 736.45,-422.05 739.76,-432.11 745.31,-427.85"/>
</g>
<!-- ValidationDataModel -->
<g id="node7" class="node">
<title>ValidationDataModel</title>
<polygon fill="none" stroke="black" points="778.5,-218.5 778.5,-459.5 980.5,-459.5 980.5,-218.5 778.5,-218.5"/>
<text text-anchor="middle" x="879.5" y="-444.3" font-family="Times,serif" font-size="14.00">ValidationDataModel</text>
<polyline fill="none" stroke="black" points="778.5,-436.5 980.5,-436.5 "/>
<text text-anchor="start" x="786.5" y="-421.3" font-family="Times,serif" font-size="14.00">rules</text>
<text text-anchor="start" x="786.5" y="-406.3" font-family="Times,serif" font-size="14.00">validationState</text>
<text text-anchor="start" x="786.5" y="-391.3" font-family="Times,serif" font-size="14.00">errors</text>
<text text-anchor="start" x="786.5" y="-376.3" font-family="Times,serif" font-size="14.00">optimizedRules</text>
<text text-anchor="start" x="786.5" y="-361.3" font-family="Times,serif" font-size="14.00">ruleExecutionTraces</text>
<text text-anchor="start" x="786.5" y="-346.3" font-family="Times,serif" font-size="14.00">withRule()</text>
<text text-anchor="start" x="786.5" y="-331.3" font-family="Times,serif" font-size="14.00">withValidationState()</text>
<text text-anchor="start" x="786.5" y="-316.3" font-family="Times,serif" font-size="14.00">withError()</text>
<text text-anchor="start" x="786.5" y="-301.3" font-family="Times,serif" font-size="14.00">withOptimizedRules()</text>
<text text-anchor="start" x="786.5" y="-286.3" font-family="Times,serif" font-size="14.00">withRuleExecutionTrace()</text>
<text text-anchor="start" x="786.5" y="-271.3" font-family="Times,serif" font-size="14.00">getState()</text>
<text text-anchor="start" x="786.5" y="-256.3" font-family="Times,serif" font-size="14.00">getOptimizedRules()</text>
<text text-anchor="start" x="786.5" y="-241.3" font-family="Times,serif" font-size="14.00">hasOptimizedRules()</text>
<text text-anchor="start" x="786.5" y="-226.3" font-family="Times,serif" font-size="14.00">getRuleExecutionTrace()</text>
</g>
<!-- ValidationAdapter&#45;&gt;ValidationDataModel -->
<g id="edge5" class="edge">
<title>ValidationAdapter&#45;&gt;ValidationDataModel</title>
<path fill="none" stroke="black" d="M879.5,-496.19C879.5,-487.51 879.5,-478.71 879.5,-469.93"/>
<polygon fill="none" stroke="black" points="883,-469.65 879.5,-459.65 876,-469.65 883,-469.65"/>
</g>
<!-- ValidationBehaviorModel -->
<g id="node8" class="node">
<title>ValidationBehaviorModel</title>
<polygon fill="none" stroke="black" points="998.5,-271 998.5,-407 1216.5,-407 1216.5,-271 998.5,-271"/>
<text text-anchor="middle" x="1107.5" y="-391.8" font-family="Times,serif" font-size="14.00">ValidationBehaviorModel</text>
<polyline fill="none" stroke="black" points="998.5,-384 1216.5,-384 "/>
<text text-anchor="start" x="1006.5" y="-368.8" font-family="Times,serif" font-size="14.00">findApplicableRules()</text>
<text text-anchor="start" x="1006.5" y="-353.8" font-family="Times,serif" font-size="14.00">applyRule()</text>
<text text-anchor="start" x="1006.5" y="-338.8" font-family="Times,serif" font-size="14.00">optimizeRules()</text>
<text text-anchor="start" x="1006.5" y="-323.8" font-family="Times,serif" font-size="14.00">validateRuleEquivalence()</text>
<text text-anchor="start" x="1006.5" y="-308.8" font-family="Times,serif" font-size="14.00">captureRuleExecution()</text>
<text text-anchor="start" x="1006.5" y="-293.8" font-family="Times,serif" font-size="14.00">handleRuleExecutionError()</text>
<text text-anchor="start" x="1006.5" y="-278.8" font-family="Times,serif" font-size="14.00">getNodePosition()</text>
</g>
<!-- ValidationAdapter&#45;&gt;ValidationBehaviorModel -->
<g id="edge6" class="edge">
<title>ValidationAdapter&#45;&gt;ValidationBehaviorModel</title>
<path fill="none" stroke="black" d="M974.87,-496.19C998.21,-468.71 1022.61,-439.97 1044.03,-414.74"/>
<polygon fill="none" stroke="black" points="1046.77,-416.92 1050.58,-407.03 1041.44,-412.39 1046.77,-416.92"/>
</g>
<!-- ImplementationComparisonResult -->
<g id="node9" class="node">
<title>ImplementationComparisonResult</title>
<polygon fill="none" stroke="black" points="0,-556.5 0,-662.5 261,-662.5 261,-556.5 0,-556.5"/>
<text text-anchor="middle" x="130.5" y="-647.3" font-family="Times,serif" font-size="14.00">ImplementationComparisonResult</text>
<polyline fill="none" stroke="black" points="0,-639.5 261,-639.5 "/>
<text text-anchor="start" x="8" y="-624.3" font-family="Times,serif" font-size="14.00">equivalent</text>
<text text-anchor="start" x="8" y="-609.3" font-family="Times,serif" font-size="14.00">mismatches</text>
<text text-anchor="start" x="8" y="-594.3" font-family="Times,serif" font-size="14.00">summary</text>
<text text-anchor="start" x="8" y="-579.3" font-family="Times,serif" font-size="14.00">generateReport()</text>
<text text-anchor="start" x="8" y="-564.3" font-family="Times,serif" font-size="14.00">visualizeDifferences()</text>
</g>
<!-- ImplementationComparisonResult&#45;&gt;ImplementationMismatchError -->
<g id="edge7" class="edge">
<title>ImplementationComparisonResult&#45;&gt;ImplementationMismatchError</title>
<path fill="none" stroke="black" d="M130.5,-556.41C130.5,-516.94 130.5,-462.07 130.5,-417.45"/>
<polygon fill="none" stroke="black" points="134,-417.23 130.5,-407.23 127,-417.23 134,-417.23"/>
</g>
<!-- ExecutionTrace -->
<g id="node10" class="node">
<title>ExecutionTrace</title>
<polygon fill="none" stroke="black" points="1263,-541.5 1263,-677.5 1394,-677.5 1394,-541.5 1263,-541.5"/>
<text text-anchor="middle" x="1328.5" y="-662.3" font-family="Times,serif" font-size="14.00">ExecutionTrace</text>
<polyline fill="none" stroke="black" points="1263,-654.5 1394,-654.5 "/>
<text text-anchor="start" x="1271" y="-639.3" font-family="Times,serif" font-size="14.00">ruleId</text>
<text text-anchor="start" x="1271" y="-624.3" font-family="Times,serif" font-size="14.00">startTime</text>
<text text-anchor="start" x="1271" y="-609.3" font-family="Times,serif" font-size="14.00">endTime</text>
<text text-anchor="start" x="1271" y="-594.3" font-family="Times,serif" font-size="14.00">inputSnapshot</text>
<text text-anchor="start" x="1271" y="-579.3" font-family="Times,serif" font-size="14.00">outputSnapshot</text>
<text text-anchor="start" x="1271" y="-564.3" font-family="Times,serif" font-size="14.00">executionPath</text>
<text text-anchor="start" x="1271" y="-549.3" font-family="Times,serif" font-size="14.00">compareWith()</text>
</g>
<!-- TraceComparisonResult -->
<g id="node11" class="node">
<title>TraceComparisonResult</title>
<polygon fill="none" stroke="black" points="1234.5,-301 1234.5,-377 1422.5,-377 1422.5,-301 1234.5,-301"/>
<text text-anchor="middle" x="1328.5" y="-361.8" font-family="Times,serif" font-size="14.00">TraceComparisonResult</text>
<polyline fill="none" stroke="black" points="1234.5,-354 1422.5,-354 "/>
<text text-anchor="start" x="1242.5" y="-338.8" font-family="Times,serif" font-size="14.00">equivalent</text>
<text text-anchor="start" x="1242.5" y="-323.8" font-family="Times,serif" font-size="14.00">divergencePoints</text>
<text text-anchor="start" x="1242.5" y="-308.8" font-family="Times,serif" font-size="14.00">valueDifferences</text>
</g>
<!-- ExecutionTrace&#45;&gt;TraceComparisonResult -->
<g id="edge8" class="edge">
<title>ExecutionTrace&#45;&gt;TraceComparisonResult</title>
<path fill="none" stroke="black" d="M1328.5,-541.44C1328.5,-493.51 1328.5,-430.19 1328.5,-387.44"/>
<polygon fill="none" stroke="black" points="1332,-387.3 1328.5,-377.3 1325,-387.3 1332,-387.3"/>
</g>
</g>
</svg>
