<svg xmlns="http://www.w3.org/2000/svg" viewBox="0 0 1000 700">
  <!-- Background -->
  <rect width="1000" height="700" fill="#f8f9fa" />
  
  <!-- Title -->
  <text x="500" y="40" font-family="Arial, sans-serif" font-size="24" font-weight="bold" text-anchor="middle">OBIX Interface Design - DOP Adapter Pattern</text>
  
  <!-- Client/User Code Area -->
  <rect x="50" y="80" width="900" height="60" rx="5" fill="#e9ecef" stroke="#343a40" stroke-width="2" />
  <text x="500" y="115" font-family="Arial, sans-serif" font-size="16" text-anchor="middle">Client Application Code</text>
  
  <!-- Functional Interface -->
  <rect x="50" y="170" width="400" height="200" rx="5" fill="#e3f2fd" stroke="#1565c0" stroke-width="2" />
  <text x="250" y="195" font-family="Arial, sans-serif" font-size="18" font-weight="bold" text-anchor="middle">Functional API</text>
  
  <rect x="70" y="210" width="360" height="140" rx="3" fill="#ffffff" stroke="#1565c0" stroke-width="1" />
  <text x="85" y="230" font-family="Arial, sans-serif" font-size="12">component({</text>
  <text x="100" y="250" font-family="Arial, sans-serif" font-size="12">initialState: { count: 0 },</text>
  <text x="100" y="270" font-family="Arial, sans-serif" font-size="12">transitions: {</text>
  <text x="115" y="290" font-family="Arial, sans-serif" font-size="12">increment: (state) => ({ count: state.count + 1 }),</text>
  <text x="115" y="310" font-family="Arial, sans-serif" font-size="12">decrement: (state) => ({ count: state.count - 1 })</text>
  <text x="100" y="330" font-family="Arial, sans-serif" font-size="12">},</text>
  <text x="85" y="350" font-family="Arial, sans-serif" font-size="12">});</text>
  
  <!-- OOP Interface -->
  <rect x="550" y="170" width="400" height="200" rx="5" fill="#e8f5e9" stroke="#2e7d32" stroke-width="2" />
  <text x="750" y="195" font-family="Arial, sans-serif" font-size="18" font-weight="bold" text-anchor="middle">OOP API</text>
  
  <rect x="570" y="210" width="360" height="140" rx="3" fill="#ffffff" stroke="#2e7d32" stroke-width="1" />
  <text x="585" y="230" font-family="Arial, sans-serif" font-size="12">class Counter extends Component {</text>
  <text x="600" y="250" font-family="Arial, sans-serif" font-size="12">initialState = { count: 0 };</text>
  <text x="600" y="270" font-family="Arial, sans-serif" font-size="12">increment(state) {</text>
  <text x="615" y="290" font-family="Arial, sans-serif" font-size="12">return { count: state.count + 1 };</text>
  <text x="600" y="310" font-family="Arial, sans-serif" font-size="12">}</text>
  <text x="600" y="330" font-family="Arial, sans-serif" font-size="12">decrement(state) { ... }</text>
  <text x="585" y="350" font-family="Arial, sans-serif" font-size="12">}</text>
  
  <!-- DOP Adapter -->
  <rect x="275" y="400" width="450" height="220" rx="5" fill="#fff3e0" stroke="#e65100" stroke-width="2" />
  <text x="500" y="425" font-family="Arial, sans-serif" font-size="18" font-weight="bold" text-anchor="middle">DOP Adapter</text>
  
  <!-- Adapter internals -->
  <rect x="295" y="440" width="410" height="160" rx="3" fill="#ffffff" stroke="#e65100" stroke-width="1" />
  
  <!-- Data model in the adapter -->
  <rect x="310" y="455" width="180" height="130" rx="3" fill="#ffecb3" stroke="#e65100" stroke-width="1" />
  <text x="400" y="475" font-family="Arial, sans-serif" font-size="14" font-weight="bold" text-anchor="middle">Data Model</text>
  <text x="320" y="495" font-family="Arial, sans-serif" font-size="12">- immutable state</text>
  <text x="320" y="515" font-family="Arial, sans-serif" font-size="12">- transition maps</text>
  <text x="320" y="535" font-family="Arial, sans-serif" font-size="12">- validation rules</text>
  <text x="320" y="555" font-family="Arial, sans-serif" font-size="12">- equivalence classes</text>
  <text x="320" y="575" font-family="Arial, sans-serif" font-size="12">- optimized AST</text>
  
  <!-- Behavior model in the adapter -->
  <rect x="510" y="455" width="180" height="130" rx="3" fill="#ffecb3" stroke="#e65100" stroke-width="1" />
  <text x="600" y="475" font-family="Arial, sans-serif" font-size="14" font-weight="bold" text-anchor="middle">Behavior Model</text>
  <text x="520" y="495" font-family="Arial, sans-serif" font-size="12">- state transitions</text>
  <text x="520" y="515" font-family="Arial, sans-serif" font-size="12">- minimization logic</text>
  <text x="520" y="535" font-family="Arial, sans-serif" font-size="12">- event handlers</text>
  <text x="520" y="555" font-family="Arial, sans-serif" font-size="12">- lifecycle hooks</text>
  <text x="520" y="575" font-family="Arial, sans-serif" font-size="12">- diffing algorithm</text>
  
  <!-- Core Engine -->
  <rect x="250" y="650" width="500" height="40" rx="5" fill="#e0e0e0" stroke="#212121" stroke-width="2" />
  <text x="500" y="675" font-family="Arial, sans-serif" font-size="16" font-weight="bold" text-anchor="middle">Automaton State Minimization Engine</text>
  
  <!-- Arrows -->
  <!-- Client to APIs -->
  <path d="M 250 140 L 250 170" fill="none" stroke="#343a40" stroke-width="2" />
  <polygon points="250,170 245,160 255,160" fill="#343a40" />
  
  <path d="M 750 140 L 750 170" fill="none" stroke="#343a40" stroke-width="2" />
  <polygon points="750,170 745,160 755,160" fill="#343a40" />
  
  <!-- Functional to Adapter -->
  <path d="M 250 370 L 250 430 L 350 430" fill="none" stroke="#1565c0" stroke-width="2" />
  <polygon points="350,430 340,425 340,435" fill="#1565c0" />
  
  <!-- OOP to Adapter -->
  <path d="M 750 370 L 750 430 L 650 430" fill="none" stroke="#2e7d32" stroke-width="2" />
  <polygon points="650,430 660,425 660,435" fill="#2e7d32" />
  
  <!-- Adapter to Core Engine -->
  <path d="M 500 620 L 500 650" fill="none" stroke="#e65100" stroke-width="2" />
  <polygon points="500,650 495,640 505,640" fill="#e65100" />
  
  <!-- Bidirectional arrows between data and behavior in adapter -->
  <path d="M 490 510 L 510 510" fill="none" stroke="#e65100" stroke-width="2" stroke-dasharray="5,3" />
  <polygon points="510,510 500,505 500,515" fill="#e65100" />
  <polygon points="490,510 500,505 500,515" fill="#e65100" />

  <!-- Description Labels -->
  <text x="295" y="160" font-family="Arial, sans-serif" font-size="12" text-anchor="middle">Transforms</text>
  <text x="705" y="160" font-family="Arial, sans-serif" font-size="12" text-anchor="middle">Transforms</text>
  
  <text x="280" y="400" font-family="Arial, sans-serif" font-size="12" text-anchor="middle">Supplies data</text>
  <text x="720" y="400" font-family="Arial, sans-serif" font-size="12" text-anchor="middle">Supplies methods</text>
  
  <text x="500" y="640" font-family="Arial, sans-serif" font-size="12" text-anchor="middle">Optimizes state transitions</text>
</svg>