<?xml version="1.0" encoding="UTF-8" standalone="no"?>
<!DOCTYPE svg PUBLIC "-//W3C//DTD SVG 1.1//EN" "http://www.w3.org/Graphics/SVG/1.1/DTD/svg11.dtd">
<svg width="1031.86" height="728.43" viewBox="0.00 0.00 5016.00 3541.00" xmlns="http://www.w3.org/2000/svg" xmlns:xlink="http://www.w3.org/1999/xlink">
<g stroke-linecap="round" id="Chest(OLD)">
<path d="M2466.90,1568.68 C2466.90,1568.68 2465.50,1564.12 2465.50,1564.12 C2473.07,1577.41 2493.77,1614.32 2497.56,1622.39 C2500.02,1627.67 2505.13,1644.45 2505.51,1645.58 C2506.67,1649.08 2514.87,1679.21 2515.65,1681.53 C2515.65,1681.53 2519.52,1692.78 2519.52,1692.78 C2519.52,1692.78 2524.91,1705.83 2524.91,1705.83" fill="none" stroke="rgb(0, 0, 0)" stroke-width="8.00" stroke-opacity="1.00" stroke-linejoin="round"/>
<path d="M2921.58,1709.97 C2923.67,1706.95 2927.72,1701.12 2928.08,1700.10 C2929.08,1697.10 2930.63,1692.73 2931.08,1691.49 C2933.91,1682.09 2939.21,1655.12 2943.40,1638.31 C2945.82,1627.93 2947.34,1619.98 2948.74,1609.49 C2950.41,1593.49 2952.09,1571.93 2952.45,1566.17 C2952.59,1566.31 2953.57,1569.39 2954.03,1570.60 C2955.09,1573.41 2955.58,1575.93 2956.25,1579.72" fill="none" stroke="rgb(0, 0, 0)" stroke-width="8.00" stroke-opacity="1.00" stroke-linejoin="round"/>
<path d="M2953.64,1570.32 C2952.06,1570.56 2951.26,1570.38 2950.66,1569.60 C2950.53,1569.43 2948.43,1567.14 2948.27,1566.95 C2948.09,1566.73 2941.10,1557.86 2936.99,1553.43 C2931.08,1547.11 2918.80,1533.85 2915.33,1529.39 C2911.01,1523.60 2901.59,1510.71 2898.01,1504.48 C2892.83,1495.22 2888.64,1488.28 2885.48,1482.00 C2878.42,1467.63 2875.76,1452.64 2875.23,1446.60" fill="none" stroke="rgb(1, 1, 1)" stroke-width="8.00" stroke-opacity="1.00" stroke-linejoin="round"/>
<path d="M2806.03,1381.63 C2806.03,1381.63 2806.34,1381.63 2806.34,1381.63" fill="none" stroke="rgb(1, 1, 1)" stroke-width="8.00" stroke-opacity="1.00" stroke-linejoin="round"/>
<path d="M2852.85,1365.37 C2851.38,1365.51 2845.84,1366.67 2842.62,1367.91 C2836.75,1370.24 2827.32,1377.12 2821.91,1382.21 C2821.91,1382.21 2820.46,1384.16 2820.46,1384.16 C2821.14,1384.32 2820.27,1384.75 2820.10,1385.12 C2819.96,1385.41 2820.53,1390.32 2820.09,1393.35 C2819.76,1395.64 2816.91,1432.95 2815.64,1444.20 C2815.38,1446.35 2813.58,1460.56 2811.69,1467.90 C2809.82,1474.95 2805.86,1488.78 2803.44,1494.97 C2802.46,1497.46 2794.37,1515.80 2790.74,1521.32 C2788.75,1524.31 2782.91,1532.13 2781.45,1533.62 C2780.09,1535.01 2776.51,1537.93 2776.41,1538.04 C2775.73,1538.82 2772.58,1543.27 2772.37,1543.48 C2772.73,1543.52 2772.98,1543.51 2773.11,1543.45 C2773.25,1543.38 2773.46,1543.17 2773.76,1542.81" fill="none" stroke="rgb(1, 1, 1)" stroke-width="8.00" stroke-opacity="1.00" stroke-linejoin="round"/>
<path d="M2627.32,1396.69 C2627.59,1396.33 2627.76,1396.08 2627.83,1395.95 C2627.90,1395.81 2627.97,1395.60 2628.03,1395.31 C2628.24,1397.44 2627.33,1415.27 2628.11,1422.37 C2628.77,1429.09 2630.82,1447.01 2630.94,1448.90 C2631.04,1450.59 2631.69,1472.86 2632.04,1476.45 C2632.73,1483.04 2637.28,1496.22 2639.85,1503.26 C2641.48,1508.14 2643.49,1512.91 2645.21,1515.85 C2649.12,1522.44 2663.21,1539.15 2665.82,1543.08 C2666.80,1544.55 2666.25,1545.37 2666.41,1545.63 C2666.87,1546.39 2672.03,1551.42 2675.30,1553.15 C2675.64,1553.33 2697.20,1564.89 2705.12,1569.13 C2707.71,1570.53 2713.06,1573.39 2715.31,1573.35 C2717.99,1573.27 2740.10,1569.19 2746.92,1566.59 C2751.77,1564.67 2765.24,1559.90 2770.40,1556.19 C2772.44,1554.71 2775.87,1551.29 2776.61,1550.53" fill="none" stroke="rgb(1, 1, 1)" stroke-width="8.00" stroke-opacity="1.00" stroke-linejoin="round"/>
<path d="M2541.45,1484.14 C2541.45,1484.14 2539.92,1487.30 2539.92,1487.30" fill="none" stroke="rgb(1, 1, 1)" stroke-width="8.00" stroke-opacity="1.00" stroke-linejoin="round"/>
<path d="M2518.00,1512.72 C2518.00,1512.72 2517.36,1513.27 2517.36,1513.27 C2517.36,1513.27 2508.39,1520.89 2508.39,1520.89 C2506.39,1523.65 2503.76,1525.79 2499.51,1527.64 C2489.89,1531.79 2464.87,1541.69 2462.27,1542.72 C2462.27,1542.72 2467.70,1540.16 2467.70,1540.16 C2466.64,1540.96 2463.79,1542.88 2463.43,1543.20 C2461.81,1544.71 2461.10,1547.90 2461.56,1551.03 C2462.47,1556.34 2477.01,1581.87 2477.66,1583.00" fill="none" stroke="rgb(1, 1, 1)" stroke-width="8.00" stroke-opacity="1.00" stroke-linejoin="round"/>
<path d="M2625.58,1415.46 C2625.06,1412.99 2624.62,1410.38 2624.42,1406.59 C2624.12,1400.33 2625.71,1388.47 2628.27,1378.38 C2629.62,1373.07 2629.68,1368.85 2629.72,1368.23 C2628.80,1372.16 2626.83,1383.42 2626.21,1386.90 C2625.85,1388.94 2625.64,1389.77 2625.41,1390.32" fill="none" stroke="rgb(1, 1, 1)" stroke-width="10.00" stroke-opacity="1.00" stroke-linejoin="round"/>
<path d="M2610.17,1356.99 C2610.18,1357.44 2610.16,1357.74 2610.10,1357.89 C2609.12,1360.30 2598.13,1366.24 2593.21,1370.59 C2590.16,1373.31 2584.11,1379.39 2584.38,1379.43 C2584.51,1379.44 2586.94,1377.95 2587.76,1377.45 C2587.63,1378.00 2588.48,1377.77 2588.39,1377.95 C2588.31,1378.11 2582.73,1384.67 2581.68,1386.76 C2579.90,1390.38 2579.96,1392.67 2579.97,1392.78 C2579.97,1392.78 2577.07,1397.93 2577.07,1397.93 C2574.52,1403.33 2570.59,1415.16 2568.09,1423.17 C2565.80,1431.17 2561.91,1446.66 2560.13,1454.09 C2558.12,1462.32 2554.25,1471.87 2550.45,1478.77 C2546.62,1485.70 2528.11,1509.69 2528.04,1509.76 C2524.30,1513.72 2507.15,1523.97 2499.84,1528.11 C2483.80,1536.73 2464.07,1547.31 2460.38,1549.28 C2460.38,1549.28 2460.96,1544.07 2460.96,1544.07" fill="none" stroke="rgb(1, 1, 1)" stroke-width="10.00" stroke-opacity="1.00" stroke-linejoin="round"/>
<path d="M2850.85,1387.00 C2850.85,1387.00 2849.55,1386.15 2849.55,1386.15 C2849.55,1386.15 2849.04,1386.43 2849.04,1386.43" fill="none" stroke="rgb(1, 1, 1)" stroke-width="10.00" stroke-opacity="1.00" stroke-linejoin="round"/>
<path d="M2875.89,1451.00 C2875.89,1451.00 2875.63,1451.17 2875.63,1451.17 C2874.96,1450.59 2875.17,1446.17 2875.09,1442.67 C2874.68,1427.98 2872.47,1403.75 2870.82,1393.28 C2870.53,1391.47 2869.02,1385.44 2868.27,1383.98 C2867.86,1383.19 2863.48,1376.25 2861.98,1373.76 C2859.47,1369.88 2852.53,1364.21 2852.01,1364.39 C2851.95,1364.42 2851.74,1364.54 2851.38,1364.75" fill="none" stroke="rgb(1, 1, 1)" stroke-width="10.00" stroke-opacity="1.00" stroke-linejoin="round"/>
<path d="M2630.19,1367.86 C2630.19,1367.86 2629.98,1367.96 2629.98,1367.96 C2629.98,1367.96 2629.77,1368.10 2629.77,1368.10 C2627.38,1364.30 2624.63,1360.19 2622.43,1358.51 C2621.51,1357.83 2618.85,1356.62 2616.77,1355.83 C2610.88,1353.67 2605.23,1355.21 2604.22,1355.88 C2604.55,1355.84 2602.53,1357.18 2601.69,1357.77 C2600.00,1358.97 2593.63,1364.38 2590.92,1367.57 C2586.54,1372.76 2581.46,1381.28 2577.78,1389.38 C2575.48,1394.56 2571.36,1411.87 2570.88,1413.65 C2567.95,1424.61 2556.85,1452.97 2556.32,1453.97 C2555.91,1454.74 2553.89,1457.99 2553.15,1459.16" fill="none" stroke="rgb(1, 1, 1)" stroke-width="8.00" stroke-opacity="1.00" stroke-linejoin="round"/>
<path d="M2761.44,1558.77 C2761.40,1559.37 2761.53,1559.61 2761.83,1559.49 C2764.05,1558.58 2775.18,1545.50 2778.82,1540.00 C2781.44,1536.02 2790.37,1520.06 2791.99,1516.93 C2795.38,1510.32 2800.42,1494.52 2800.41,1494.87 C2800.28,1498.43 2795.20,1512.47 2791.73,1519.06 C2787.68,1526.73 2783.65,1532.63 2776.73,1541.29 C2774.44,1544.11 2769.95,1549.67 2767.73,1552.41 C2765.59,1555.04 2761.17,1559.28 2758.35,1560.74 C2756.71,1561.57 2752.62,1562.60 2751.40,1562.45 C2750.33,1562.30 2748.68,1561.16 2747.74,1560.28" fill="none" stroke="rgb(1, 1, 1)" stroke-width="8.00" stroke-opacity="1.00" stroke-linejoin="round"/>
<path d="M2903.84,1759.34 C2903.84,1759.34 2906.77,1752.41 2906.77,1752.41" fill="none" stroke="rgb(0, 0, 0)" stroke-width="8.00" stroke-opacity="1.00" stroke-linejoin="round"/>
<path d="M2533.90,1771.59 C2533.90,1771.59 2533.32,1770.79 2533.32,1770.79 C2533.55,1770.47 2533.71,1770.27 2533.77,1770.20 C2533.83,1770.13 2533.90,1770.08 2533.97,1770.07" fill="none" stroke="rgb(0, 0, 0)" stroke-width="8.00" stroke-opacity="1.00" stroke-linejoin="round"/>
<path d="M2725.00,1775.85 C2725.00,1775.85 2724.99,1775.16 2724.99,1775.16" fill="none" stroke="rgb(0, 0, 0)" stroke-width="8.00" stroke-opacity="1.00" stroke-linejoin="round"/>
<path d="M2727.62,1773.14 C2725.12,1772.75 2722.13,1772.33 2717.10,1772.81 C2709.82,1773.63 2669.49,1777.33 2660.54,1779.02 C2646.75,1781.51 2616.41,1786.04 2604.92,1786.57 C2597.86,1786.88 2583.45,1787.58 2576.10,1787.96 C2568.96,1788.26 2555.03,1787.39 2551.89,1786.08 C2549.35,1785.00 2544.60,1781.20 2544.46,1781.11" fill="none" stroke="rgb(0, 0, 0)" stroke-width="8.00" stroke-opacity="1.00" stroke-linejoin="round"/>
<path d="M2722.18,1772.42 C2722.18,1772.42 2722.56,1772.69 2722.56,1772.69 C2722.56,1772.69 2722.55,1771.97 2722.55,1771.97" fill="none" stroke="rgb(0, 0, 0)" stroke-width="8.00" stroke-opacity="1.00" stroke-linejoin="round"/>
<path d="M2887.95,1782.54 C2887.95,1782.54 2887.95,1782.86 2887.95,1782.86 C2888.06,1782.94 2888.14,1782.99 2888.19,1783.00 C2888.25,1783.01 2888.59,1782.97 2888.62,1782.97" fill="none" stroke="rgb(0, 0, 0)" stroke-width="8.00" stroke-opacity="1.00" stroke-linejoin="round"/>
<path d="M2714.69,1774.45 C2714.44,1774.49 2714.20,1774.53 2713.95,1774.57 C2713.75,1774.60 2713.56,1774.64 2713.36,1774.67 C2721.66,1770.25 2726.90,1767.90 2735.87,1765.11 C2739.12,1764.14 2743.48,1763.62 2746.39,1763.50 C2747.76,1763.44 2750.22,1763.82 2752.02,1764.44 C2752.67,1764.66 2757.12,1766.75 2759.03,1767.57 C2760.44,1768.19 2763.55,1769.41 2764.70,1769.85" fill="none" stroke="rgb(0, 0, 0)" stroke-width="8.00" stroke-opacity="1.00" stroke-linejoin="round"/>
<path d="M2757.02,1771.50 C2757.02,1771.50 2756.82,1771.14 2756.82,1771.14 C2756.82,1771.14 2756.81,1770.82 2756.81,1770.82 C2760.29,1771.97 2766.45,1774.00 2770.84,1774.54 C2772.82,1774.78 2795.81,1776.91 2799.41,1777.89 C2804.02,1779.16 2819.33,1781.64 2826.53,1782.64 C2843.03,1784.73 2869.54,1786.40 2871.39,1786.46 C2882.66,1786.80 2897.56,1782.98 2897.55,1782.98" fill="none" stroke="rgb(0, 0, 0)" stroke-width="8.00" stroke-opacity="1.00" stroke-linejoin="round"/>
<path d="M2523.98,1679.23 C2523.98,1679.23 2522.10,1675.58 2522.10,1675.58" fill="none" stroke="rgb(0, 0, 0)" stroke-width="8.00" stroke-opacity="1.00" stroke-linejoin="round"/>
<path d="M2918.79,1679.94 C2918.79,1679.94 2920.68,1676.30 2920.68,1676.30" fill="none" stroke="rgb(0, 0, 0)" stroke-width="8.00" stroke-opacity="1.00" stroke-linejoin="round"/>
<path d="M2519.24,1670.11 C2518.42,1670.08 2517.47,1670.63 2517.49,1671.47 C2517.57,1672.85 2521.88,1678.43 2524.93,1681.44 C2529.97,1686.34 2541.61,1694.03 2548.19,1696.85 C2555.70,1700.04 2566.91,1703.04 2573.78,1703.75 C2580.01,1704.36 2592.88,1704.21 2599.56,1703.17 C2604.59,1702.38 2619.11,1698.52 2624.48,1696.29 C2628.47,1694.62 2642.72,1686.51 2646.85,1685.66 C2650.63,1684.88 2651.53,1684.56 2653.03,1683.86" fill="none" stroke="rgb(0, 0, 0)" stroke-width="8.00" stroke-opacity="1.00" stroke-linejoin="round"/>
<path d="M2923.56,1670.84 C2924.38,1670.81 2925.33,1671.36 2925.30,1672.21 C2925.22,1673.58 2920.89,1679.15 2917.83,1682.15 C2912.77,1687.03 2901.11,1694.67 2894.51,1697.48 C2886.99,1700.64 2875.77,1703.60 2868.89,1704.28 C2862.67,1704.87 2849.79,1704.67 2843.12,1703.61 C2838.10,1702.80 2823.59,1698.89 2818.22,1696.64 C2814.24,1694.95 2800.02,1686.79 2795.89,1685.93 C2792.12,1685.13 2791.22,1684.81 2789.72,1684.10" fill="none" stroke="rgb(0, 0, 0)" stroke-width="8.00" stroke-opacity="1.00" stroke-linejoin="round"/>
</g>
<g stroke-linecap="round" id="Stomach">
<path d="M2561.67,1800.02 C2561.67,1800.02 2561.02,1797.75 2561.02,1797.75 C2562.62,1800.52 2566.96,1814.76 2568.12,1821.99 C2569.25,1829.23 2569.79,1843.68 2569.67,1850.02 C2569.37,1856.98 2568.20,1871.96 2567.30,1878.27 C2565.81,1887.93 2563.75,1898.27 2561.66,1905.25 C2555.41,1926.49 2552.86,1932.79 2550.56,1940.94 C2549.74,1943.86 2548.66,1951.39 2548.52,1951.56 C2548.52,1951.56 2548.21,1954.03 2548.21,1954.03" fill="none" stroke="rgb(7, 7, 7)" stroke-width="8.00" stroke-opacity="1.00" stroke-linejoin="round"/>
<path d="M2865.48,1794.89 C2865.48,1794.89 2866.06,1792.60 2866.06,1792.60 C2864.56,1795.42 2860.69,1809.80 2859.78,1817.06 C2858.89,1824.33 2858.84,1838.80 2859.18,1845.13 C2859.72,1852.07 2861.39,1867.01 2862.50,1873.28 C2864.32,1882.89 2866.72,1893.16 2869.05,1900.06 C2876.01,1921.07 2878.77,1927.29 2881.35,1935.35 C2882.27,1938.24 2883.61,1945.74 2883.75,1945.89 C2883.75,1945.89 2884.14,1948.35 2884.14,1948.35" fill="none" stroke="rgb(7, 7, 7)" stroke-width="8.00" stroke-opacity="1.00" stroke-linejoin="round"/>
<path d="M2630.91,1870.04 C2630.91,1870.04 2630.55,1870.05 2630.55,1870.05 C2632.07,1872.00 2633.38,1873.42 2634.84,1874.48 C2639.83,1878.08 2652.21,1884.12 2663.73,1888.89 C2669.42,1891.15 2673.27,1892.45 2675.57,1892.66 C2678.70,1892.91 2683.55,1892.89 2686.76,1892.32 C2697.97,1890.24 2716.31,1880.76 2717.65,1880.09" fill="none" stroke="rgb(7, 7, 7)" stroke-width="8.00" stroke-opacity="1.00" stroke-linejoin="round"/>
<path d="M2798.66,1867.21 C2798.66,1867.21 2799.01,1867.20 2799.01,1867.20 C2796.45,1870.52 2792.43,1873.71 2790.04,1875.22 C2784.80,1878.50 2772.16,1884.62 2761.53,1889.23 C2758.03,1890.72 2754.68,1891.46 2750.62,1891.66 C2745.35,1891.85 2733.62,1889.27 2725.85,1886.18 C2717.93,1882.95 2713.06,1880.52 2712.25,1880.12" fill="none" stroke="rgb(7, 7, 7)" stroke-width="8.00" stroke-opacity="1.00" stroke-linejoin="round"/>
<path d="M2711.86,1885.22 C2711.94,1884.51 2711.99,1884.06 2712.01,1883.88 C2712.02,1883.71 2712.02,1883.56 2712.00,1883.43 C2712.51,1898.25 2713.37,1928.36 2713.72,1943.66 C2713.97,1953.27 2713.52,1959.14 2713.21,1962.66" fill="none" stroke="rgb(7, 7, 7)" stroke-width="8.00" stroke-opacity="1.00" stroke-linejoin="round"/>
<path d="M2718.27,1885.12 C2718.15,1884.40 2718.09,1883.96 2718.07,1883.78 C2718.05,1883.61 2718.04,1883.45 2718.06,1883.33 C2718.05,1898.15 2718.21,1928.28 2718.38,1943.58 C2718.45,1953.19 2719.10,1959.04 2719.53,1962.56" fill="none" stroke="rgb(7, 7, 7)" stroke-width="8.00" stroke-opacity="1.00" stroke-linejoin="round"/>
<path d="M2669.42,1920.34 C2669.42,1920.34 2669.08,1920.87 2669.08,1920.87 C2670.54,1923.75 2672.82,1926.79 2675.48,1928.58 C2678.67,1930.65 2684.39,1933.07 2688.61,1934.22 C2692.05,1935.13 2715.02,1935.77 2716.71,1935.57 C2718.08,1935.40 2720.91,1934.91 2721.46,1934.78" fill="none" stroke="rgb(7, 7, 7)" stroke-width="8.00" stroke-opacity="1.00" stroke-linejoin="round"/>
<path d="M2761.86,1918.78 C2761.86,1918.78 2762.22,1919.30 2762.22,1919.30 C2760.85,1922.22 2758.68,1925.34 2756.08,1927.21 C2752.97,1929.40 2747.33,1932.01 2743.15,1933.30 C2739.74,1934.32 2716.81,1935.74 2715.11,1935.59 C2713.74,1935.47 2710.89,1935.08 2710.34,1934.97" fill="none" stroke="rgb(7, 7, 7)" stroke-width="8.00" stroke-opacity="1.00" stroke-linejoin="round"/>
<path d="M2716.72,1965.07 C2716.46,1964.74 2716.20,1964.40 2715.94,1964.07 C2714.98,1962.81 2714.38,1961.88 2713.83,1960.82" fill="none" stroke="rgb(7, 7, 7)" stroke-width="8.00" stroke-opacity="1.00" stroke-linejoin="round"/>
<path d="M2716.10,1965.08 C2716.35,1964.74 2716.60,1964.40 2716.85,1964.05 C2717.76,1962.77 2718.33,1961.81 2718.85,1960.74" fill="none" stroke="rgb(7, 7, 7)" stroke-width="8.00" stroke-opacity="1.00" stroke-linejoin="round"/>
<path d="M2717.44,2003.51 C2717.08,2003.50 2716.84,2003.50 2716.71,2003.52 C2716.58,2003.53 2716.38,2003.59 2716.11,2003.68 C2717.18,2004.53 2720.97,2004.76 2724.37,2004.48 C2730.91,2003.91 2751.09,2000.00 2752.61,1999.47 C2756.68,1998.03 2779.66,1985.20 2780.39,1984.84 C2781.37,1984.33 2783.40,1984.50 2783.13,1984.31 C2782.99,1984.21 2782.18,1983.79 2780.71,1983.04" fill="none" stroke="rgb(7, 7, 7)" stroke-width="8.00" stroke-opacity="1.00" stroke-linejoin="round"/>
<path d="M2716.68,2003.52 C2717.03,2003.50 2717.27,2003.49 2717.40,2003.51 C2717.53,2003.52 2717.74,2003.57 2718.01,2003.65 C2716.97,2004.53 2713.20,2004.89 2709.79,2004.72 C2703.23,2004.38 2682.93,2001.15 2681.39,2000.67 C2677.28,1999.38 2653.87,1987.33 2653.13,1986.99 C2652.14,1986.51 2650.11,1986.75 2650.37,1986.55 C2650.51,1986.45 2651.31,1986.00 2652.75,1985.20" fill="none" stroke="rgb(7, 7, 7)" stroke-width="8.00" stroke-opacity="1.00" stroke-linejoin="round"/>
<path d="M2712.54,1948.71 C2711.81,1947.10 2711.35,1946.07 2711.15,1945.62 C2710.95,1945.16 2710.75,1944.65 2710.53,1944.08 C2711.81,1948.28 2714.93,1965.28 2716.39,1973.37 C2719.07,1989.32 2721.26,2007.10 2721.49,2010.62 C2720.82,1994.19 2720.09,1967.91 2720.09,1967.37 C2720.08,1967.20 2720.04,1966.97 2719.96,1966.70" fill="none" stroke="rgb(7, 7, 7)" stroke-width="8.00" stroke-opacity="1.00" stroke-linejoin="round"/>
<path d="M2719.73,1948.59 C2720.40,1946.96 2720.83,1945.91 2721.01,1945.45 C2721.19,1944.99 2721.38,1944.47 2721.58,1943.90 C2720.44,1948.14 2717.89,1965.23 2716.71,1973.36 C2714.57,1989.39 2712.98,2007.24 2712.87,2010.77 C2712.99,1994.33 2712.82,1968.03 2712.81,1967.49 C2712.81,1967.32 2712.84,1967.09 2712.92,1966.82" fill="none" stroke="rgb(7, 7, 7)" stroke-width="8.00" stroke-opacity="1.00" stroke-linejoin="round"/>
</g>
<g stroke-linecap="round" id="Chest">
<path d="M2624.02,1345.32 C2624.02,1345.32 2623.32,1345.48 2623.32,1345.48 C2623.06,1345.28 2622.28,1344.57 2622.19,1344.51 C2621.57,1344.19 2620.38,1345.81 2619.55,1348.11 C2615.10,1360.79 2611.82,1419.20 2611.02,1434.24 C2610.70,1442.45 2611.39,1455.37 2612.09,1461.44 C2612.85,1467.90 2615.96,1481.59 2618.42,1488.96 C2620.39,1494.82 2625.49,1506.76 2628.67,1512.64 C2631.68,1518.16 2638.56,1527.81 2643.78,1533.17 C2647.85,1537.33 2659.41,1546.54 2665.48,1550.55 C2671.67,1554.62 2685.28,1561.51 2692.98,1564.09 C2696.77,1565.36 2704.88,1567.58 2708.93,1568.67 C2711.90,1569.46 2717.76,1570.99 2719.77,1570.58 C2719.79,1570.57 2723.20,1569.90 2723.69,1569.56 C2723.99,1569.35 2724.53,1568.78 2725.31,1567.86" fill="none" stroke="rgb(7, 7, 7)" stroke-width="8.32" stroke-opacity="1.00" stroke-linejoin="round"/>
<path d="M2808.30,1343.61 C2808.30,1343.61 2809.00,1343.75 2809.00,1343.75 C2809.26,1343.55 2810.02,1342.82 2810.11,1342.76 C2810.73,1342.42 2811.95,1344.02 2812.82,1346.31 C2817.51,1358.90 2821.87,1417.24 2822.95,1432.26 C2823.42,1440.47 2822.97,1453.40 2822.39,1459.48 C2821.75,1465.95 2818.90,1479.70 2816.58,1487.11 C2814.72,1493.01 2809.83,1505.05 2806.76,1510.98 C2803.86,1516.55 2797.17,1526.33 2792.05,1531.79 C2788.05,1536.03 2776.66,1545.44 2770.67,1549.57 C2764.56,1553.75 2751.08,1560.90 2743.43,1563.62 C2739.66,1564.96 2731.59,1567.34 2727.56,1568.50 C2724.61,1569.34 2718.77,1570.98 2716.76,1570.61 C2716.74,1570.60 2713.32,1570.00 2712.82,1569.66 C2712.52,1569.45 2711.97,1568.90 2711.17,1568.00" fill="none" stroke="rgb(7, 7, 7)" stroke-width="8.32" stroke-opacity="1.00" stroke-linejoin="round"/>
<path d="M2617.96,1343.29 C2617.96,1343.29 2618.24,1343.32 2618.24,1343.32 C2618.24,1343.32 2618.88,1343.58 2618.88,1343.58 C2618.94,1343.60 2619.09,1343.59 2619.05,1343.57 C2616.93,1342.27 2613.00,1340.92 2609.51,1340.51 C2606.44,1340.21 2590.15,1345.04 2589.12,1346.26" fill="none" stroke="rgb(7, 7, 7)" stroke-width="8.32" stroke-opacity="1.00" stroke-linejoin="round"/>
<path d="M2814.31,1341.46 C2814.31,1341.46 2814.04,1341.50 2814.04,1341.50 C2814.04,1341.50 2813.40,1341.77 2813.40,1341.77 C2813.35,1341.79 2813.19,1341.79 2813.24,1341.76 C2815.34,1340.42 2819.23,1339.00 2822.72,1338.53 C2825.78,1338.17 2842.16,1342.69 2843.21,1343.89" fill="none" stroke="rgb(7, 7, 7)" stroke-width="8.32" stroke-opacity="1.00" stroke-linejoin="round"/>
<path d="M2616.62,1344.67 C2616.62,1344.67 2616.80,1344.28 2616.80,1344.28 C2614.46,1342.66 2612.37,1341.90 2610.06,1342.04 C2607.79,1342.18 2601.27,1343.74 2598.49,1344.92 C2595.74,1346.12 2592.39,1348.37 2590.06,1350.38 C2587.96,1352.27 2579.04,1369.88 2578.41,1371.06 C2575.26,1377.05 2572.60,1387.20 2570.69,1397.34 C2565.47,1422.35 2558.40,1450.88 2556.24,1456.51 C2554.20,1462.23 2550.54,1471.99 2546.32,1478.42 C2541.32,1485.94 2535.28,1493.44 2529.85,1498.56 C2525.33,1502.78 2512.20,1511.61 2508.89,1513.57 C2503.47,1516.75 2494.07,1521.29 2489.98,1523.16" fill="none" stroke="rgb(7, 7, 7)" stroke-width="8.32" stroke-opacity="1.00" stroke-linejoin="round"/>
<path d="M2815.69,1342.82 C2815.69,1342.82 2815.50,1342.43 2815.50,1342.43 C2817.81,1340.76 2819.88,1339.97 2822.20,1340.06 C2824.47,1340.16 2831.01,1341.60 2833.82,1342.73 C2836.59,1343.88 2839.98,1346.06 2842.35,1348.03 C2844.49,1349.88 2853.73,1367.32 2854.38,1368.49 C2857.65,1374.42 2860.49,1384.52 2862.59,1394.62 C2868.27,1419.53 2875.87,1447.92 2878.14,1453.52 C2880.29,1459.20 2884.13,1468.89 2888.47,1475.23 C2893.61,1482.66 2899.78,1490.04 2905.31,1495.06 C2909.99,1499.28 2923.43,1507.88 2926.54,1509.68 C2932.85,1513.30 2956.91,1523.71 2960.58,1525.16" fill="none" stroke="rgb(7, 7, 7)" stroke-width="8.32" stroke-opacity="1.00" stroke-linejoin="round"/>
<path d="M2478.77,1585.29 C2478.77,1585.29 2482.79,1596.32 2482.79,1596.32" fill="none" stroke="rgb(7, 7, 7)" stroke-width="8.32" stroke-opacity="1.00" stroke-linejoin="round"/>
<path d="M2957.64,1581.32 C2957.64,1581.32 2954.41,1591.49 2954.41,1591.49" fill="none" stroke="rgb(7, 7, 7)" stroke-width="8.32" stroke-opacity="1.00" stroke-linejoin="round"/>
<path d="M2560.62,1796.76 C2560.62,1796.76 2560.67,1796.77 2560.67,1796.77" fill="none" stroke="rgb(7, 7, 7)" stroke-width="8.32" stroke-opacity="1.00" stroke-linejoin="round"/>
<path d="M2880.10,1793.79 C2880.10,1793.79 2880.04,1793.80 2880.04,1793.80" fill="none" stroke="rgb(7, 7, 7)" stroke-width="8.32" stroke-opacity="1.00" stroke-linejoin="round"/>
<path d="M2551.80,1792.31 C2551.80,1792.31 2550.70,1791.71 2550.70,1791.71 C2553.76,1794.47 2557.39,1796.45 2560.02,1796.93 C2562.91,1797.43 2579.44,1798.40 2586.04,1797.87 C2593.88,1797.19 2608.44,1796.03 2615.52,1795.89 C2621.44,1795.67 2631.60,1793.93 2642.89,1791.62 C2650.66,1789.91 2669.91,1785.42 2674.01,1784.24 C2681.84,1781.95 2713.04,1769.47 2716.74,1768.22 C2719.24,1767.38 2723.47,1766.52 2726.24,1766.88 C2728.63,1767.20 2730.45,1767.66 2730.42,1767.66 C2730.42,1767.66 2723.89,1769.36 2723.89,1769.36" fill="none" stroke="rgb(7, 7, 7)" stroke-width="8.32" stroke-opacity="1.00" stroke-linejoin="round"/>
<path d="M2888.83,1789.17 C2888.83,1789.17 2889.93,1788.55 2889.93,1788.55 C2886.91,1791.37 2883.32,1793.41 2880.70,1793.94 C2877.82,1794.50 2861.31,1795.77 2854.70,1795.37 C2846.85,1794.84 2832.27,1793.94 2825.19,1793.94 C2819.27,1793.83 2809.08,1792.27 2797.75,1790.17 C2789.95,1788.62 2770.61,1784.48 2766.50,1783.37 C2758.62,1781.23 2727.20,1769.34 2723.47,1768.16 C2720.96,1767.37 2716.71,1766.59 2713.95,1766.99 C2711.56,1767.36 2709.75,1767.85 2709.78,1767.85 C2709.78,1767.85 2716.34,1769.43 2716.34,1769.43" fill="none" stroke="rgb(7, 7, 7)" stroke-width="8.32" stroke-opacity="1.00" stroke-linejoin="round"/>
<path d="M2490.48,1522.92 C2490.48,1522.92 2490.38,1522.69 2490.38,1522.69 C2490.38,1522.69 2489.85,1522.28 2489.85,1522.28 C2487.47,1524.26 2486.30,1525.45 2485.20,1527.17 C2482.57,1531.29 2480.29,1535.85 2479.61,1538.57 C2478.55,1542.95 2476.08,1563.92 2475.93,1569.99 C2475.77,1577.58 2477.96,1592.75 2479.09,1593.99" fill="none" stroke="rgb(7, 7, 7)" stroke-width="8.32" stroke-opacity="1.00" stroke-linejoin="round"/>
<path d="M2945.12,1518.68 C2945.12,1518.68 2945.22,1518.45 2945.22,1518.45 C2945.22,1518.45 2945.74,1518.03 2945.74,1518.03 C2948.16,1519.97 2949.35,1521.13 2950.49,1522.83 C2953.19,1526.91 2955.55,1531.42 2956.28,1534.13 C2957.42,1538.50 2960.28,1559.31 2960.54,1565.62 C2960.82,1572.93 2959.93,1580.27 2959.81,1581.25" fill="none" stroke="rgb(7, 7, 7)" stroke-width="8.32" stroke-opacity="1.00" stroke-linejoin="round"/>
<path d="M2472.91,1596.13 C2472.91,1596.13 2472.45,1595.83 2472.45,1595.83 C2472.30,1595.15 2472.21,1594.70 2472.17,1594.48 C2472.14,1594.25 2472.13,1593.96 2472.14,1593.58" fill="none" stroke="rgb(7, 7, 7)" stroke-width="8.32" stroke-opacity="1.00" stroke-linejoin="round"/>
<path d="M2964.05,1591.56 C2964.05,1591.56 2964.51,1591.24 2964.51,1591.24 C2964.65,1590.56 2964.73,1590.11 2964.76,1589.89 C2964.79,1589.67 2964.79,1589.37 2964.78,1588.99" fill="none" stroke="rgb(7, 7, 7)" stroke-width="8.32" stroke-opacity="1.00" stroke-linejoin="round"/>
<path d="M2474.49,1587.02 C2474.49,1587.02 2474.67,1586.82 2474.67,1586.82 C2475.78,1588.19 2477.70,1595.95 2477.96,1596.91 C2480.61,1606.76 2490.21,1633.78 2495.50,1650.76 C2500.10,1666.40 2508.77,1695.66 2512.96,1707.00 C2519.00,1722.06 2533.34,1755.56 2537.93,1763.21 C2542.25,1770.15 2551.60,1784.15 2553.73,1787.02 C2558.26,1793.06 2565.63,1800.36 2569.80,1803.07 C2570.06,1803.25 2570.28,1803.44 2570.46,1803.66" fill="none" stroke="rgb(7, 7, 7)" stroke-width="8.32" stroke-opacity="1.00" stroke-linejoin="round"/>
<path d="M2962.30,1582.48 C2962.30,1582.48 2962.12,1582.28 2962.12,1582.28 C2961.04,1583.67 2959.26,1591.47 2959.02,1592.43 C2956.56,1602.32 2947.46,1629.52 2942.48,1646.60 C2938.18,1662.32 2930.06,1691.73 2926.07,1703.15 C2920.32,1718.32 2906.60,1752.08 2902.16,1759.82 C2897.97,1766.83 2888.88,1781.01 2886.81,1783.91 C2882.39,1790.05 2875.15,1797.48 2871.04,1800.26 C2870.78,1800.44 2870.56,1800.65 2870.38,1800.87" fill="none" stroke="rgb(7, 7, 7)" stroke-width="8.32" stroke-opacity="1.00" stroke-linejoin="round"/>
<path d="M2513.44,1695.90 C2513.44,1695.90 2511.34,1696.44 2511.34,1696.44 C2511.03,1697.54 2514.13,1701.97 2516.84,1704.48 C2520.99,1708.25 2532.66,1714.78 2539.20,1717.01 C2544.63,1718.84 2556.75,1721.09 2565.09,1721.77 C2572.16,1722.34 2583.30,1722.32 2594.65,1721.56 C2604.01,1720.80 2617.37,1718.36 2624.88,1715.74 C2629.94,1713.96 2652.45,1704.45 2654.01,1703.44 C2654.01,1703.44 2652.75,1700.97 2652.75,1700.97" fill="none" stroke="rgb(7, 7, 7)" stroke-width="8.32" stroke-opacity="1.00" stroke-linejoin="round"/>
<path d="M2920.48,1689.02 C2920.48,1689.02 2922.60,1689.49 2922.60,1689.49 C2922.95,1690.58 2920.00,1695.12 2917.37,1697.71 C2913.36,1701.62 2901.91,1708.54 2895.45,1711.00 C2890.08,1713.01 2878.04,1715.66 2869.73,1716.62 C2862.69,1717.43 2851.55,1717.79 2840.19,1717.41 C2830.81,1716.96 2817.37,1714.98 2809.77,1712.62 C2804.65,1711.01 2781.84,1702.26 2780.24,1701.31 C2780.24,1701.31 2781.42,1698.79 2781.42,1698.79" fill="none" stroke="rgb(7, 7, 7)" stroke-width="8.32" stroke-opacity="1.00" stroke-linejoin="round"/>
<path d="M2917.72,1695.89 C2917.72,1695.89 2917.34,1695.89 2917.34,1695.89 C2917.34,1695.89 2917.25,1695.31 2917.25,1695.31 C2918.13,1694.44 2920.03,1692.54 2921.06,1691.52 C2921.65,1690.95 2922.25,1690.38 2922.84,1689.81" fill="none" stroke="rgb(7, 7, 7)" stroke-width="8.32" stroke-opacity="1.00" stroke-linejoin="round"/>
<path d="M2516.43,1702.67 C2516.43,1702.67 2516.81,1702.66 2516.81,1702.66 C2516.81,1702.66 2516.88,1702.08 2516.88,1702.08 C2515.98,1701.23 2514.01,1699.40 2512.94,1698.41 C2512.33,1697.86 2511.72,1697.31 2511.11,1696.76" fill="none" stroke="rgb(7, 7, 7)" stroke-width="8.32" stroke-opacity="1.00" stroke-linejoin="round"/>
<path d="M2919.52,1691.33 C2919.52,1691.33 2918.91,1692.14 2918.91,1692.14" fill="none" stroke="rgb(7, 7, 7)" stroke-width="8.32" stroke-opacity="1.00" stroke-linejoin="round"/>
<path d="M2514.48,1698.17 C2514.48,1698.17 2515.12,1698.96 2515.12,1698.96" fill="none" stroke="rgb(7, 7, 7)" stroke-width="8.32" stroke-opacity="1.00" stroke-linejoin="round"/>
<path d="M2920.31,1693.45 C2919.98,1692.48 2920.66,1691.32 2922.87,1689.41 C2926.30,1686.43 2927.34,1684.94 2927.90,1683.68" fill="none" stroke="rgb(7, 7, 7)" stroke-width="8.32" stroke-opacity="1.00" stroke-linejoin="round"/>
<path d="M2513.76,1700.31 C2514.06,1699.34 2513.34,1698.20 2511.07,1696.36 C2507.53,1693.50 2506.45,1692.05 2505.84,1690.81" fill="none" stroke="rgb(7, 7, 7)" stroke-width="8.32" stroke-opacity="1.00" stroke-linejoin="round"/>
<path d="M2928.07,1686.07 C2930.28,1684.60 2932.09,1683.09 2933.14,1681.78 C2933.34,1681.53 2933.52,1681.23 2933.70,1680.89" fill="none" stroke="rgb(7, 7, 7)" stroke-width="8.32" stroke-opacity="1.00" stroke-linejoin="round"/>
<path d="M2505.76,1693.21 C2503.50,1691.81 2501.64,1690.36 2500.55,1689.09 C2500.34,1688.84 2500.14,1688.55 2499.96,1688.22" fill="none" stroke="rgb(7, 7, 7)" stroke-width="8.32" stroke-opacity="1.00" stroke-linejoin="round"/>
<path d="M2929.05,1684.94 C2929.05,1684.94 2928.81,1685.15 2928.81,1685.15 C2928.81,1685.15 2932.43,1681.30 2932.43,1681.30" fill="none" stroke="rgb(7, 7, 7)" stroke-width="8.32" stroke-opacity="1.00" stroke-linejoin="round"/>
<path d="M2504.74,1692.11 C2504.74,1692.11 2504.99,1692.31 2504.99,1692.31 C2504.28,1691.60 2502.78,1690.12 2502.00,1689.34 C2501.73,1689.07 2501.46,1688.80 2501.20,1688.54" fill="none" stroke="rgb(7, 7, 7)" stroke-width="8.32" stroke-opacity="1.00" stroke-linejoin="round"/>
<path d="M2482.65,1531.90 C2482.65,1531.90 2484.21,1531.12 2484.21,1531.12 C2484.21,1531.12 2484.21,1528.78 2484.21,1528.78" fill="none" stroke="rgb(0, 0, 0)" stroke-width="8.32" stroke-opacity="1.00" stroke-linejoin="round"/>
<path d="M2962.07,1531.90 C2962.07,1531.90 2960.51,1531.12 2960.51,1531.12 C2960.51,1531.12 2960.51,1528.78 2960.51,1528.78" fill="none" stroke="rgb(0, 0, 0)" stroke-width="8.32" stroke-opacity="1.00" stroke-linejoin="round"/>
<path d="M2484.21,1528.78 L2475.33,1541.22" fill="none" stroke="rgb(0, 0, 0)" stroke-width="8.32" stroke-opacity="1.00" stroke-linejoin="round"/>
<path d="M2960.51,1528.78 L2965.71,1536.06" fill="none" stroke="rgb(0, 0, 0)" stroke-width="8.32" stroke-opacity="1.00" stroke-linejoin="round"/>
<path d="M2473.29,1535.02 C2473.29,1535.02 2473.29,1536.57 2473.29,1536.57" fill="none" stroke="rgb(0, 0, 0)" stroke-width="8.32" stroke-opacity="1.00" stroke-linejoin="round"/>
<path d="M2971.43,1535.02 C2971.43,1535.02 2971.43,1536.57 2971.43,1536.57" fill="none" stroke="rgb(0, 0, 0)" stroke-width="8.32" stroke-opacity="1.00" stroke-linejoin="round"/>
</g>
<g stroke-linecap="round" id="Long_Arm"/>
<g stroke-linecap="round" id="Short_Arm">
<path d="M3062.80,1391.54 C3062.80,1391.54 3066.17,1391.72 3066.17,1391.72 C3066.17,1391.72 3069.16,1395.73 3069.16,1395.73 C3069.16,1395.73 3093.89,1424.26 3093.89,1424.26 C3093.89,1424.26 3098.17,1429.50 3098.17,1429.50 C3098.17,1429.50 3114.13,1459.15 3114.13,1459.15" fill="none" stroke="rgb(0, 0, 0)" stroke-width="7.55" stroke-opacity="1.00" stroke-linejoin="round"/>
<path d="M3160.48,1518.77 C3160.48,1518.77 3185.91,1564.21 3185.91,1564.21" fill="none" stroke="rgb(0, 0, 0)" stroke-width="7.55" stroke-opacity="1.00" stroke-linejoin="round"/>
<path d="M3106.34,1454.62 C3106.34,1454.62 3119.00,1499.05 3119.00,1499.05 C3119.00,1499.05 3112.79,1480.55 3112.79,1480.55" fill="none" stroke="rgb(0, 0, 0)" stroke-width="7.55" stroke-opacity="1.00" stroke-linejoin="round"/>
<path d="M3100.64,1440.79 C3100.64,1440.79 3100.68,1440.86 3100.68,1440.86" fill="none" stroke="rgb(0, 0, 0)" stroke-width="7.55" stroke-opacity="1.00" stroke-linejoin="round"/>
<path d="M3145.98,1510.12 C3145.98,1510.12 3146.82,1509.49 3146.82,1509.49" fill="none" stroke="rgb(0, 0, 0)" stroke-width="7.55" stroke-opacity="1.00" stroke-linejoin="round"/>
<path d="M2430.37,1344.52 C2430.37,1344.52 2393.86,1382.08 2393.86,1382.08" fill="none" stroke="rgb(0, 0, 0)" stroke-width="7.55" stroke-opacity="1.00" stroke-linejoin="round"/>
<path d="M3035.03,1361.25 C3035.03,1361.25 3051.17,1379.89 3051.17,1379.89" fill="none" stroke="rgb(0, 0, 0)" stroke-width="7.55" stroke-opacity="1.00" stroke-linejoin="round"/>
<path d="M3057.16,1385.70 C3057.16,1385.70 3062.98,1389.38 3062.98,1389.38 C3062.98,1389.38 3068.69,1399.51 3068.69,1399.51" fill="none" stroke="rgb(0, 0, 0)" stroke-width="7.55" stroke-opacity="1.00" stroke-linejoin="round"/>
<path d="M3071.41,1404.11 C3071.41,1404.11 3071.99,1406.60 3071.99,1406.60" fill="none" stroke="rgb(0, 0, 0)" stroke-width="7.55" stroke-opacity="1.00" stroke-linejoin="round"/>
<path d="M3073.87,1407.35 C3073.87,1407.35 3074.64,1410.01 3074.64,1410.01" fill="none" stroke="rgb(0, 0, 0)" stroke-width="7.55" stroke-opacity="1.00" stroke-linejoin="round"/>
<path d="M3091.21,1428.69 C3091.21,1428.69 3094.60,1432.03 3094.60,1432.03" fill="none" stroke="rgb(0, 0, 0)" stroke-width="7.55" stroke-opacity="1.00" stroke-linejoin="round"/>
<path d="M3097.55,1432.17 C3099.56,1437.45 3104.58,1450.63 3107.59,1458.55 C3111.78,1469.47 3118.27,1483.58 3122.18,1490.23 C3124.57,1494.23 3130.83,1502.42 3134.42,1505.39 C3137.11,1507.55 3148.84,1512.92 3150.73,1513.79" fill="none" stroke="rgb(0, 0, 0)" stroke-width="7.55" stroke-opacity="1.00" stroke-linejoin="round"/>
<path d="M3152.84,1515.32 C3152.84,1515.32 3160.32,1517.28 3160.32,1517.28" fill="none" stroke="rgb(0, 0, 0)" stroke-width="7.55" stroke-opacity="1.00" stroke-linejoin="round"/>
<path d="M3160.80,1520.82 C3160.80,1520.82 3186.08,1569.07 3186.08,1569.07" fill="none" stroke="rgb(0, 0, 0)" stroke-width="7.55" stroke-opacity="1.00" stroke-linejoin="round"/>
<path d="M2403.39,1374.15 C2403.39,1374.15 2372.07,1407.27 2372.07,1407.27 C2372.07,1407.27 2370.42,1409.34 2370.42,1409.34 C2370.42,1409.34 2367.85,1412.57 2367.85,1412.57 C2367.85,1412.57 2365.92,1424.72 2365.92,1424.72 C2365.92,1424.72 2364.73,1432.16 2364.73,1432.16 C2363.24,1435.38 2358.86,1444.82 2358.84,1444.87 C2358.58,1445.38 2364.49,1431.85 2364.72,1430.12 C2366.10,1422.40 2366.72,1418.47 2367.29,1414.72 C2367.78,1412.37 2371.58,1407.28 2372.36,1406.31 C2376.08,1401.72 2380.82,1395.82 2381.21,1395.45 C2379.79,1396.89 2371.31,1406.88 2367.94,1410.73 C2367.29,1411.41 2366.96,1413.27 2365.44,1415.80 C2364.87,1416.73 2363.68,1421.95 2363.48,1422.52 C2360.83,1426.73 2360.72,1432.37 2359.67,1434.18 C2358.92,1435.43 2358.86,1438.24 2358.48,1439.29 C2358.20,1440.07 2356.78,1441.48 2356.76,1442.91 C2356.73,1445.18 2356.36,1446.98 2355.64,1448.27 C2354.93,1449.51 2354.98,1451.16 2354.73,1451.67 C2354.36,1452.41 2353.52,1452.85 2353.18,1453.60 C2353.15,1454.18 2353.11,1454.76 2353.08,1455.33 C2352.56,1455.97 2352.04,1456.60 2351.52,1457.24 C2351.27,1457.76 2351.41,1459.16 2350.65,1459.93 C2350.50,1460.07 2350.14,1460.56 2350.29,1460.42 C2350.39,1460.32 2350.83,1459.86 2351.60,1459.03 C2351.56,1457.95 2351.53,1457.37 2351.54,1457.32 C2351.52,1456.89 2351.61,1458.97 2351.53,1459.09 C2351.42,1459.26 2347.34,1464.04 2347.22,1464.19 C2347.22,1464.19 2344.87,1466.93 2344.87,1466.93 C2344.87,1466.93 2343.81,1468.16 2343.81,1468.16 C2342.39,1469.78 2340.72,1470.38 2339.86,1472.33 C2339.63,1472.87 2336.60,1474.73 2335.77,1475.63 C2335.32,1476.14 2332.34,1480.23 2330.99,1480.94 C2330.09,1481.41 2329.14,1482.49 2327.68,1483.92 C2327.68,1483.92 2324.32,1487.37 2324.32,1487.37 C2324.32,1487.37 2321.26,1490.47 2321.26,1490.47 C2321.26,1490.47 2320.21,1491.65 2320.21,1491.65 C2318.32,1493.70 2316.19,1496.87 2316.07,1496.96 C2313.44,1498.98 2309.20,1503.37 2308.76,1504.50 C2308.43,1505.37 2301.30,1516.24 2294.99,1525.43 C2292.32,1529.31 2281.04,1548.31 2276.98,1555.32 C2276.55,1556.04 2272.16,1563.19 2271.26,1564.89 C2270.06,1567.21 2267.81,1571.53 2266.71,1575.24 C2266.35,1576.43 2258.99,1591.06 2258.75,1591.73 C2258.06,1593.61 2251.12,1603.02 2250.80,1603.87 C2250.64,1603.98 2249.65,1609.42 2249.17,1610.14 C2248.45,1611.23 2245.98,1613.44 2245.38,1614.70 C2242.13,1620.88 2235.16,1634.72 2235.11,1634.96 C2234.55,1637.59 2232.92,1639.61 2232.46,1640.35 C2232.12,1640.89 2231.25,1644.24 2230.93,1645.46 C2230.93,1645.46 2228.79,1649.08 2228.79,1649.08 C2228.36,1649.17 2222.21,1653.41 2219.10,1659.62 C2218.90,1660.03 2219.11,1661.07 2218.39,1661.66 C2218.18,1661.85 2213.54,1667.14 2213.25,1667.75 C2213.26,1668.20 2213.26,1668.65 2213.27,1669.11 C2212.99,1669.71 2211.41,1670.94 2210.34,1673.18 C2209.27,1675.41 2207.69,1676.64 2207.40,1677.25 C2207.21,1677.66 2207.64,1678.21 2207.43,1678.61 C2206.93,1679.06 2206.44,1679.51 2205.95,1679.97 C2205.96,1680.42 2205.96,1680.87 2205.97,1681.33 C2205.48,1681.78 2204.98,1682.23 2204.49,1682.69 C2204.28,1683.09 2204.70,1683.64 2204.51,1684.05 C2204.23,1684.66 2202.60,1685.93 2201.55,1688.01 C2198.75,1693.46 2197.49,1694.35 2197.17,1694.94 C2196.95,1695.34 2196.91,1697.28 2195.73,1699.03 C2195.62,1699.20 2194.25,1700.39 2193.50,1701.08 C2192.78,1701.66 2192.99,1702.72 2192.78,1703.12 C2191.31,1705.17 2188.64,1707.98 2188.35,1708.58 C2188.35,1709.04 2188.36,1709.50 2188.37,1709.95 C2188.07,1710.56 2184.22,1714.81 2183.93,1715.42 C2183.74,1715.83 2184.16,1716.39 2183.95,1716.79 C2183.45,1717.24 2182.96,1717.70 2182.46,1718.16 C2182.47,1718.61 2182.47,1719.07 2182.48,1719.53 C2182.16,1720.12 2181.34,1720.32 2180.99,1720.89 C2180.76,1721.29 2181.15,1721.83 2181.01,1722.27 C2180.52,1723.18 2180.03,1724.09 2179.54,1725.01 C2179.40,1725.44 2179.79,1725.99 2179.56,1726.38 C2179.07,1726.84 2178.57,1727.29 2178.07,1727.75 C2177.84,1728.14 2178.23,1728.69 2178.09,1729.12 C2177.76,1730.11 2176.98,1730.89 2176.62,1731.87 C2176.47,1732.30 2176.50,1733.72 2175.17,1735.99 C2173.83,1738.25 2173.94,1739.71 2173.72,1740.11 C2173.41,1740.71 2171.10,1742.86 2170.75,1744.23 C2170.64,1744.68 2171.03,1745.23 2170.77,1745.61 C2170.39,1746.17 2169.49,1746.34 2169.28,1746.98 C2169.00,1747.86 2169.62,1748.87 2169.32,1749.74 C2168.82,1750.20 2168.32,1750.66 2167.82,1751.11 C2167.84,1752.03 2167.85,1752.95 2167.86,1753.87 C2167.64,1754.51 2166.64,1754.63 2166.37,1755.25 C2166.08,1755.90 2166.59,1759.19 2166.43,1759.38 C2165.99,1759.90 2165.14,1760.12 2164.93,1760.76 C2164.65,1761.64 2165.27,1762.65 2164.97,1763.52 C2164.75,1764.16 2163.74,1764.28 2163.47,1764.90 C2163.19,1765.55 2163.69,1768.85 2163.53,1769.04 C2163.10,1769.57 2162.28,1769.79 2162.03,1770.42 C2161.75,1771.11 2162.25,1774.37 2162.09,1774.57 C2161.65,1775.09 2160.80,1775.30 2160.59,1775.95 C2160.31,1776.83 2160.93,1777.84 2160.63,1778.71 C2160.41,1779.36 2159.40,1779.47 2159.13,1780.10 C2158.84,1780.75 2159.35,1784.03 2159.19,1784.25 C2158.79,1784.80 2158.02,1785.04 2157.69,1785.63 C2157.45,1786.03 2157.85,1786.58 2157.70,1787.01 C2157.21,1787.94 2156.72,1788.86 2156.22,1789.78 C2156.08,1790.22 2156.50,1790.78 2156.24,1791.17 C2155.87,1791.74 2154.99,1791.92 2154.74,1792.56 C2154.46,1793.25 2154.96,1796.52 2154.80,1796.71 C2154.36,1797.24 2153.50,1797.45 2153.29,1798.10 C2153.01,1798.98 2153.63,1800.00 2153.33,1800.87 C2153.11,1801.52 2152.12,1801.64 2151.83,1802.26 C2151.60,1802.74 2152.13,1807.33 2151.90,1807.81 C2151.62,1808.43 2150.69,1808.58 2150.40,1809.20 C2149.51,1811.16 2150.70,1824.36 2150.60,1824.48 C2150.17,1825.01 2149.36,1825.24 2149.10,1825.88 C2148.52,1827.28 2149.43,1839.46 2149.28,1839.79 C2148.99,1840.41 2148.01,1840.54 2147.77,1841.19 C2147.45,1842.06 2147.74,1844.45 2147.06,1844.67 C2147.06,1844.67 2146.24,1840.50 2146.24,1840.50" fill="none" stroke="rgb(0, 0, 0)" stroke-width="7.91" stroke-opacity="1.00" stroke-linejoin="round"/>
<path d="M3233.62,1647.37 C3239.51,1652.79 3250.95,1666.54 3251.26,1667.09 C3251.47,1667.46 3251.37,1668.45 3252.05,1669.00 C3255.81,1672.45 3257.13,1676.03 3260.01,1679.86 C3261.13,1681.97 3262.61,1683.14 3262.90,1683.70 C3263.10,1684.08 3262.78,1684.60 3262.99,1684.97 C3264.39,1686.25 3265.18,1688.16 3265.88,1688.80 C3266.09,1689.17 3265.78,1689.70 3265.97,1690.08 C3266.26,1690.64 3267.79,1691.85 3268.87,1693.80 C3271.75,1698.91 3272.92,1699.75 3273.24,1700.30 C3273.45,1700.67 3273.66,1702.48 3274.82,1704.13 C3274.93,1704.29 3276.22,1705.41 3276.92,1706.05 C3277.60,1706.60 3277.50,1707.59 3277.71,1707.96 C3279.15,1709.88 3281.70,1712.52 3282.00,1713.08 C3282.03,1713.51 3282.06,1713.93 3282.09,1714.36 C3282.39,1714.91 3286.08,1718.92 3286.38,1719.47 C3286.57,1719.85 3286.25,1720.38 3286.47,1720.75 C3287.17,1721.39 3287.91,1722.67 3287.96,1723.30 C3288.28,1723.85 3289.01,1724.06 3289.36,1724.58 C3289.59,1724.95 3290.81,1729.33 3291.04,1729.69 C3291.50,1730.12 3291.97,1730.55 3292.43,1730.97 C3292.66,1731.34 3293.97,1735.68 3294.11,1736.09 C3294.27,1736.53 3296.95,1740.75 3297.10,1741.20 C3297.24,1741.60 3296.98,1742.11 3297.19,1742.48 C3297.51,1743.03 3299.67,1745.04 3300.08,1746.32 C3300.21,1746.72 3299.93,1747.25 3300.18,1747.60 C3300.55,1748.11 3301.34,1748.29 3301.58,1748.88 C3301.88,1749.67 3301.44,1750.64 3301.76,1751.43 C3302.23,1751.86 3302.70,1752.29 3303.16,1752.71 C3303.23,1753.57 3303.29,1754.42 3303.35,1755.27 C3303.59,1755.86 3304.47,1755.98 3304.75,1756.55 C3305.05,1757.15 3304.88,1760.21 3305.03,1760.39 C3305.44,1760.87 3306.21,1761.08 3306.43,1761.67 C3306.74,1762.47 3306.30,1763.44 3306.62,1764.23 C3306.86,1764.82 3307.74,1764.94 3308.02,1765.51 C3308.32,1766.11 3308.15,1769.17 3308.30,1769.35 C3308.71,1769.84 3309.45,1770.06 3309.70,1770.63 C3310.00,1771.27 3309.83,1774.29 3309.99,1774.48 C3310.40,1774.96 3311.16,1775.17 3311.39,1775.76 C3311.69,1776.56 3311.25,1777.53 3311.58,1778.32 C3311.82,1778.91 3312.70,1779.03 3312.98,1779.60 C3313.27,1780.20 3313.11,1783.24 3313.26,1783.45 C3313.64,1783.95 3314.33,1784.19 3314.66,1784.73 C3314.89,1785.09 3316.10,1789.51 3316.35,1789.86 C3316.71,1790.37 3317.48,1790.56 3317.75,1791.14 C3318.05,1791.78 3317.88,1794.81 3318.03,1794.99 C3318.45,1795.47 3319.21,1795.68 3319.43,1796.27 C3319.74,1797.07 3319.30,1798.04 3319.63,1798.84 C3319.86,1799.42 3320.73,1799.56 3321.03,1800.12 C3321.26,1800.56 3321.18,1804.81 3321.41,1805.25 C3321.69,1805.82 3322.52,1805.97 3322.81,1806.53 C3322.94,1806.80 3323.77,1819.02 3323.77,1819.39 C3323.77,1820.56 3324.98,1821.39 3325.27,1821.96 C3325.38,1822.18 3326.12,1834.62 3326.23,1834.83 C3326.53,1835.38 3327.38,1835.53 3327.63,1836.11 C3327.97,1836.90 3327.92,1839.13 3328.52,1839.33 C3328.52,1839.33 3328.89,1835.46 3328.89,1835.46" fill="none" stroke="rgb(0, 0, 0)" stroke-width="7.55" stroke-opacity="1.00" stroke-linejoin="round"/>
<path d="M2473.03,1572.48 C2469.77,1577.95 2460.65,1590.76 2458.28,1593.75 C2453.52,1599.70 2444.66,1608.86 2436.09,1617.13 C2434.23,1618.94 2430.61,1622.82 2429.27,1625.94 C2429.08,1626.40 2428.76,1627.12 2428.29,1628.12 C2428.29,1628.12 2425.42,1629.25 2425.42,1629.25 C2425.36,1629.50 2424.59,1629.82 2424.42,1630.07 C2424.29,1630.27 2424.59,1631.74 2424.11,1632.77 C2423.68,1633.63 2423.18,1633.93 2422.61,1633.70 C2422.15,1633.51 2417.34,1629.06 2416.74,1629.22 C2416.13,1629.38 2415.11,1635.68 2414.75,1636.28 C2414.14,1637.32 2410.03,1637.92 2408.99,1638.07 C2406.38,1638.42 2391.58,1650.67 2385.52,1655.75 C2383.87,1657.14 2382.22,1658.14 2381.59,1658.54 C2380.59,1659.19 2379.68,1660.72 2378.78,1663.10 C2377.81,1665.76 2376.00,1667.40 2375.55,1668.19 C2374.89,1669.37 2374.01,1674.36 2374.12,1674.70 C2372.53,1678.64 2370.03,1689.31 2369.04,1690.98 C2368.01,1692.75 2366.52,1700.34 2366.42,1700.52 C2365.94,1701.29 2364.67,1703.95 2364.45,1704.52 C2364.37,1704.72 2359.41,1710.58 2358.59,1713.30 C2357.44,1717.17 2346.86,1737.19 2346.74,1737.30 C2346.03,1737.98 2345.00,1738.43 2344.58,1739.33 C2344.30,1739.95 2344.94,1740.76 2344.63,1741.36 C2343.91,1742.04 2343.19,1742.71 2342.47,1743.39 C2342.48,1744.07 2342.50,1744.75 2342.51,1745.42 C2341.79,1746.10 2341.07,1746.78 2340.35,1747.45 C2340.03,1748.06 2340.68,1748.87 2340.40,1749.49 C2339.98,1750.39 2337.85,1751.92 2337.21,1753.41 C2336.14,1755.80 2325.45,1769.60 2325.34,1769.86 C2324.72,1771.39 2321.71,1774.69 2318.86,1778.03 C2318.43,1778.54 2317.17,1781.61 2316.73,1782.12 C2316.08,1782.88 2315.15,1783.37 2314.55,1784.17 C2314.08,1784.78 2314.03,1785.68 2313.48,1786.22 C2313.28,1786.42 2309.72,1787.67 2309.07,1788.27 C2308.57,1788.73 2307.30,1791.89 2306.93,1792.37 C2306.51,1792.95 2302.97,1795.95 2302.56,1796.48 C2302.17,1796.97 2300.90,1800.03 2300.42,1800.58 C2299.78,1801.32 2297.10,1803.01 2296.02,1803.67 C2295.24,1804.16 2294.32,1806.13 2293.85,1806.75 C2293.57,1807.13 2288.47,1811.92 2286.20,1814.99 C2285.62,1815.77 2283.48,1816.50 2282.89,1817.06 C2282.32,1817.59 2281.46,1819.78 2280.71,1820.15 C2279.98,1820.52 2277.13,1822.06 2276.29,1823.25 C2273.97,1826.54 2272.68,1827.68 2268.68,1831.42 C2264.66,1835.21 2261.10,1838.68 2260.89,1838.78 C2260.15,1839.13 2259.26,1839.26 2258.66,1839.82 C2258.09,1840.36 2257.32,1842.26 2255.37,1843.97 C2254.90,1844.38 2234.53,1863.71 2234.32,1863.75 C2233.19,1863.76 2231.88,1863.80 2230.95,1864.81 C2230.34,1865.47 2226.66,1868.75 2226.50,1868.99 C2226.33,1869.25 2226.34,1869.60 2226.52,1870.02" fill="none" stroke="rgb(0, 0, 0)" stroke-width="7.55" stroke-opacity="1.00" stroke-linejoin="round"/>
<path d="M2953.19,1480.57 C2953.08,1480.03 2953.28,1479.31 2953.80,1479.23 C2954.92,1479.08 2957.90,1484.23 2957.93,1484.37 C2958.12,1485.63 2958.37,1492.15 2958.47,1495.94 C2958.52,1497.92 2958.79,1505.81 2960.50,1510.08 C2962.30,1514.48 2971.61,1528.82 2976.13,1535.31 C2981.55,1542.71 2992.59,1557.50 2997.91,1564.24 C3002.91,1570.34 3015.00,1584.03 3020.12,1588.51 C3023.95,1591.83 3028.34,1594.45 3032.42,1596.23 C3037.33,1598.44 3048.92,1606.04 3055.56,1612.36 C3063.31,1619.73 3073.29,1628.54 3073.37,1628.46 C3074.24,1627.63 3076.17,1628.49 3080.42,1631.07 C3083.19,1632.80 3091.05,1638.71 3092.17,1639.31 C3093.73,1639.16 3097.32,1641.77 3100.01,1645.38 C3100.69,1646.32 3104.71,1650.77 3106.14,1653.96 C3106.68,1655.18 3111.15,1663.55 3111.79,1665.33 C3114.13,1671.64 3116.66,1676.91 3117.23,1679.56 C3117.39,1680.94 3119.16,1684.87 3118.97,1686.02 C3118.87,1686.70 3120.32,1691.34 3120.59,1691.86 C3120.99,1692.63 3122.35,1694.52 3122.60,1696.79 C3122.62,1696.95 3123.94,1702.58 3124.80,1704.70 C3125.65,1705.94 3126.98,1710.59 3129.49,1713.39 C3130.35,1714.35 3144.42,1739.09 3144.47,1739.14 C3145.17,1739.80 3146.14,1740.23 3146.59,1741.08 C3146.88,1741.65 3146.39,1742.45 3146.71,1743.01 C3147.42,1743.65 3148.13,1744.29 3148.83,1744.94 C3148.87,1745.58 3148.92,1746.22 3148.96,1746.87 C3149.66,1747.51 3150.37,1748.16 3151.07,1748.80 C3151.40,1749.36 3150.90,1750.16 3151.20,1750.73 C3151.65,1751.57 3153.69,1753.04 3154.39,1754.46 C3155.37,1756.36 3166.90,1771.11 3172.87,1777.78 C3173.30,1778.26 3174.68,1781.16 3175.11,1781.64 C3175.76,1782.35 3176.64,1782.82 3177.23,1783.57 C3177.70,1784.15 3178.55,1785.69 3180.34,1786.33 C3181.83,1786.87 3182.94,1787.87 3183.58,1789.23 C3184.59,1791.40 3189.08,1795.13 3190.04,1797.13 C3191.05,1799.23 3196.05,1802.35 3196.39,1802.89 C3197.95,1805.30 3201.94,1808.72 3203.65,1810.85 C3205.55,1813.26 3207.53,1813.96 3208.09,1814.47 C3208.64,1814.97 3209.58,1817.03 3210.27,1817.37 C3213.50,1819.03 3216.75,1823.34 3217.66,1824.12 C3218.20,1824.59 3226.38,1832.06 3228.18,1833.82 C3228.94,1834.57 3230.77,1835.18 3231.33,1835.69 C3231.88,1836.20 3232.71,1837.97 3234.56,1839.56 C3235.00,1839.94 3254.44,1857.83 3254.62,1857.87 C3255.61,1857.87 3256.75,1857.89 3257.65,1858.82 C3258.23,1859.44 3261.71,1862.46 3261.87,1862.68 C3262.04,1862.92 3262.07,1863.24 3261.94,1863.65" fill="none" stroke="rgb(0, 0, 0)" stroke-width="7.55" stroke-opacity="1.00" stroke-linejoin="round"/>
<path d="M3185.88,1566.38 C3185.88,1566.38 3185.86,1564.57 3185.86,1564.57" fill="none" stroke="rgb(0, 0, 0)" stroke-width="7.91" stroke-opacity="1.00" stroke-linejoin="round"/>
<path d="M3193.05,1555.61 C3193.05,1555.61 3191.22,1554.68 3191.22,1554.68 C3191.24,1551.56 3191.16,1550.87 3190.26,1550.12 C3189.85,1549.79 3188.93,1548.86 3187.50,1547.35 C3186.27,1551.11 3194.56,1561.06 3196.86,1565.97 C3198.33,1568.91 3209.17,1586.72 3211.67,1590.11 C3214.23,1593.57 3221.60,1607.47 3225.84,1613.00 C3233.66,1624.55 3241.10,1645.84 3241.60,1646.88 C3242.21,1648.12 3245.86,1654.37 3247.03,1658.45 C3248.29,1662.82 3251.28,1668.02 3251.55,1668.97 C3252.80,1673.30 3257.58,1679.92 3257.71,1680.18 C3258.80,1682.36 3261.19,1687.18 3261.42,1687.69 C3262.10,1689.20 3263.75,1690.46 3264.10,1691.22 C3264.34,1691.76 3263.84,1692.45 3264.10,1692.98 C3264.70,1693.57 3265.29,1694.16 3265.89,1694.74 C3266.14,1695.27 3265.61,1695.99 3265.89,1696.50 C3266.30,1697.23 3267.39,1697.48 3267.67,1698.27 C3267.85,1698.75 3267.85,1699.92 3267.68,1701.77 C3267.68,1701.77 3264.12,1697.36 3264.12,1697.36" fill="none" stroke="rgb(0, 0, 0)" stroke-width="7.91" stroke-opacity="1.00" stroke-linejoin="round"/>
</g>
<g stroke-linecap="round" id="Short">
<path d="M2719.10,2444.57" fill="none" stroke="rgb(0, 0, 0)" stroke-width="8.00" stroke-opacity="1.00" stroke-linejoin="round"/>
</g>
<g stroke-linecap="round" id="Shoulder">
<path d="M3010.75,1368.84 C3010.75,1368.84 3010.75,1366.95 3010.75,1366.95" fill="none" stroke="rgb(0, 0, 0)" stroke-width="3.12" stroke-opacity="1.00" stroke-linejoin="round"/>
<path d="M3073.12,1421.76 C3073.12,1421.76 3071.23,1414.20 3071.23,1414.20" fill="none" stroke="rgb(0, 0, 0)" stroke-width="8.32" stroke-opacity="1.00" stroke-linejoin="round"/>
<path d="M2602.33,1344.27 C2597.90,1342.58 2588.18,1338.85 2582.88,1336.81 C2576.57,1334.41 2563.51,1331.02 2556.16,1329.90 C2551.36,1329.17 2539.52,1328.42 2533.81,1328.37 C2528.13,1328.39 2514.90,1329.08 2510.15,1329.66 C2504.02,1330.42 2491.43,1333.07 2485.01,1334.94 C2478.79,1336.77 2467.14,1341.10 2461.78,1343.37 C2450.85,1348.22 2428.10,1360.57 2417.32,1367.40 C2412.28,1370.74 2401.85,1378.19 2398.55,1380.78 C2393.46,1384.85 2383.85,1393.77 2379.26,1399.13 C2374.71,1404.49 2367.21,1416.96 2365.45,1419.67 C2364.12,1421.80 2361.96,1430.31 2361.64,1431.37" fill="none" stroke="rgb(0, 0, 0)" stroke-width="8.32" stroke-opacity="1.00" stroke-linejoin="round"/>
<path d="M2846.32,1344.27 C2850.75,1342.58 2860.48,1338.85 2865.77,1336.81 C2872.09,1334.41 2885.14,1331.02 2892.49,1329.90 C2897.30,1329.17 2909.14,1328.42 2914.84,1328.37 C2920.53,1328.39 2933.76,1329.08 2938.51,1329.66 C2944.64,1330.42 2957.23,1333.07 2963.65,1334.94 C2969.87,1336.77 2981.52,1341.10 2986.88,1343.37 C2997.81,1348.22 3020.55,1360.57 3031.33,1367.40 C3036.38,1370.74 3046.81,1378.19 3050.11,1380.78 C3055.20,1384.85 3064.81,1393.77 3069.39,1399.13 C3073.97,1404.51 3078.76,1412.14 3081.80,1417.49" fill="none" stroke="rgb(0, 0, 0)" stroke-width="8.32" stroke-opacity="1.00" stroke-linejoin="round"/>
</g>
</svg>
