<?xml version="1.0" encoding="UTF-8" standalone="no"?>
<!-- Created with Inkscape (http://www.inkscape.org/) -->

<svg
   width="79.878281mm"
   height="93.257591mm"
   viewBox="0 0 79.878281 93.257591"
   version="1.1"
   id="svg1"
   xml:space="preserve"
   xmlns="http://www.w3.org/2000/svg"
   xmlns:svg="http://www.w3.org/2000/svg"><defs
     id="defs1" /><g
     id="layer1"
     transform="translate(-75.086431,-196.42151)"><path
       style="fill:#4d4d4d"
       d="m 109.21168,283.75171 v -5.92738 -5.92738 l -1.38306,-0.0695 -1.38305,-0.0695 -2.37096,-0.0357 -2.37095,-0.0357 -2.568534,0.1052 -2.568532,0.1052 v 4.65735 4.65735 l 1.185476,0.45491 1.185477,0.45491 v 1.90181 1.90181 l -2.562358,0.51247 -2.562359,0.51247 -0.269614,-0.80884 -0.269613,-0.80884 h -0.724458 -0.724458 v 1.18548 1.18547 l -0.987897,0.0108 -0.987898,0.0108 -1.627336,0.43708 -1.627336,0.43709 -0.965631,-2.11933 -0.965631,-2.11933 0.472851,-1.48982 0.472851,-1.48982 h 1.132219 1.132219 l 0.0121,-8.49592 0.0121,-8.49591 0.580636,-0.88068 0.580637,-0.88067 5.927383,-0.22104 5.927386,-0.22104 1.68906,0.0247 1.68906,0.0247 -1.49148,-1.49148 -1.49148,-1.49148 h -0.81906 -0.819062 l -3.711459,-3.55643 -3.711458,-3.55643 -1.594445,-0.022 -1.594445,-0.022 -2.305094,-2.349 -2.305093,-2.349 h -1.409645 -1.409645 l -0.63201,-1.03425 -0.632009,-1.03425 -3.161271,-1.60603 -2.117373,-7.64929 6.85805,-0.14885 6.858049,-0.14884 0.410155,1.06884 0.410155,1.06885 h 1.100921 1.100922 v 1.18548 1.18547 l 0.987897,0.0936 0.987897,0.0936 0.998475,-0.13071 0.998475,-0.13071 0.526653,1.37243 0.526653,1.37244 0.845826,-3.50874 0.845825,-3.50873 1.580636,0.14615 1.58064,0.14615 1.58025,0.24901 1.58025,0.249 0.26085,-1.83863 0.26085,-1.83864 1.12259,0.43078 1.12259,0.43077 v -2.39279 -2.39279 l -0.67615,0.41789 -0.67615,0.41788 0.24206,-1.7543 0.24205,-1.7543 0.35889,-3.35885 0.35889,-3.35885 h -1.11027 -1.11027 v -0.90077 -0.90077 l 1.30398,-0.9535 1.30399,-0.9535 -1.30249,-2.61089 -1.30248,-2.61089 0.9864,-1.19558 0.98639,-1.19559 -0.9879,-0.3325 -0.98789,-0.33249 v -1.53958 -1.53958 l 1.18547,-0.45491 1.18548,-0.45491 v -3.03007 -3.03008 l 0.91021,-0.56254 0.91022,-0.56254 1.06558,1.45727 1.06558,1.45727 1.1756,-1.53411 1.17559,-1.53411 1.57294,1.97579 1.57295,1.9758 0.0176,-0.90222 0.0176,-0.90222 2.05139,-0.51487 2.05139,-0.51486 1.2384,1.02192 1.2384,1.02193 0.3325,-0.9879 0.3325,-0.98789 h 1.51477 1.51478 v 1.18547 1.18548 h 1.06537 1.06538 l 0.11835,6.22723 0.11834,6.22723 -1.18372,0.9824 -1.18372,0.9824 v 10.48796 10.48797 l 1.25011,0.47971 1.25012,0.47972 h 2.30631 2.30632 l 0.0624,4.14916 0.0624,4.14917 0.39863,-0.98789 0.39862,-0.9879 h 1.03507 1.03506 l 0.45491,-1.18548 0.45491,-1.18548 h 1.63024 1.63025 l 0.45491,-1.18547 0.45491,-1.18548 h 2.22053 2.22054 l 0.32054,-0.9616 0.32053,-0.9616 7.30836,0.95419 z m -3.16127,-52.55613 v -0.39516 h 0.39516 0.39516 v 0.39516 0.39516 h -0.39516 -0.39516 z m 24.10469,28.30518 -0.79032,1.00512 -0.79032,1.00512 -1.97579,0.30978 -1.97579,0.30977 7.6264,0.13571 7.6264,0.1357 1.46225,0.54068 1.46225,0.54068 0.58064,0.84796 0.58064,0.84797 0.0121,8.0162 0.0121,8.0162 1.18548,0.45491 1.18547,0.45491 -0.0121,1.80302 -0.0121,1.80302 -0.72411,1.14457 -0.72411,1.14458 -5.08845,0.32401 -5.08844,0.32401 -2.07852,-1.3619 -2.07852,-1.3619 v -1.8849 -1.8849 h 1.18548 1.18547 v -5.13707 -5.13706 h -7.0978 -7.0978 l -0.40574,1.77821 z m -16.68123,30.1137 0.47971,-1.25012 v -1.12083 -1.12084 h -1.18547 -1.18548 v 2.37095 z m -4.5291,-2.89905 -0.39862,-0.9879 v 1.97579 1.9758 l 0.39862,-0.9879 0.39863,-0.9879 z m 7.11633,-0.3293 -0.52688,-0.52688 -0.52688,0.52688 -0.52688,0.52688 h 1.05376 1.05376 z m 20.02138,0.13172 v -0.39516 h -0.39516 -0.39515 v 0.39516 0.39516 h 0.39515 0.39516 z m 6.05911,-0.92204 -0.52688,-0.52688 v 1.05376 1.05375 l 0.52688,-0.52687 0.52687,-0.52688 z m -52.160978,-0.79032 -0.526878,-0.52688 v 1.05376 1.05376 l 0.526878,-0.52688 0.526879,-0.52688 z m 50.053458,0.92204 v -0.39516 h -0.39516 -0.39516 v 0.39516 0.39516 h 0.39516 0.39516 z m -28.71834,-2.96369 -0.39863,-0.9879 v 1.97579 1.9758 l 0.39863,-0.9879 0.39862,-0.9879 z m 4.59137,0.29901 0.49847,-2.26952 -0.52135,-2.07723 -0.52135,-2.07723 h -0.70464 -0.70465 v 1.18548 1.18548 h -1.18547 -1.18548 v 1.18547 1.18548 h 1.18548 1.18547 v 1.9758 1.97579 h 0.72753 0.72752 z m -28.034002,1.08404 v -0.39516 H 87.477939 87.08278 v 0.39516 0.39516 h 0.395159 0.395159 z m 45.048112,0 v -0.39516 h -0.39516 -0.39516 v 0.39516 0.39516 h 0.39516 0.39516 z m 7.68914,-0.0823 -0.47749,-0.47749 -1.03729,0.41509 -1.03729,0.41509 1.51477,0.0624 1.51478,0.0624 z m 3.37531,0.0823 v -0.39516 h -0.39516 -0.39516 v 0.39516 0.39516 h 0.39516 0.39516 z m -53.741609,-0.79031 v -0.39516 h -0.395159 -0.395158 v 0.39516 0.39515 h 0.395158 0.395159 z m 4.566262,-1.88733 0.0649,-2.28248 -1.525261,0.39886 -1.525261,0.39887 v -1.62617 -1.62617 l 0.878678,-0.54305 0.878678,-0.54306 0.740229,1.08915 0.740229,1.08915 -0.14874,-3.16127 -0.14874,-3.16127 0.110469,-0.9879 0.110468,-0.9879 2.568533,-0.0917 2.568535,-0.0917 -1.334467,-0.35207 -1.334465,-0.35208 -0.25218,-1.30946 -0.25218,-1.30947 -1.772206,1.90224 -1.772206,1.90224 -1.611422,-1.72966 -1.611423,-1.72966 H 89.81811 89.453738 v 7.50802 7.50802 h 1.549476 1.549476 l 1.019056,1.15542 1.019057,1.15541 0.07731,0.0301 0.07731,0.0301 z m 47.331277,0.96529 -0.52688,-0.52688 v 1.05376 1.05375 l 0.52688,-0.52688 0.52687,-0.52687 z m -4.47847,0.13172 v -0.39516 h -0.39516 -0.39516 v 0.39516 0.39516 h 0.39516 0.39516 z m 1.58063,-2.76611 v -1.58064 h -0.79031 -0.79032 v 1.27765 1.27765 l -1.58173,-0.41363 -1.58172,-0.41363 0.44289,0.71662 0.44289,0.71661 h 1.92915 1.92915 z m 1.58064,0.39515 v -0.39515 h -0.39516 -0.39516 v 0.39515 0.39516 h 0.39516 0.39516 z m 0,-1.58063 v -0.39516 h -0.39516 -0.39516 v 0.39516 0.39516 h 0.39516 0.39516 z m -29.4922,-2.9143 -0.41509,-1.03729 -0.0624,1.51478 -0.0624,1.51477 0.47749,-0.47748 0.47748,-0.47749 z m 28.36457,-1.12243 1.91795,-0.48137 v -2.12651 -2.12651 l -2.70719,-0.97894 -2.70718,-0.97893 -2.03472,0.51069 -2.03473,0.51068 v -0.876 -0.87599 h -0.79031 -0.79032 v 1.13298 1.13298 l 2.17337,0.25008 2.17338,0.25007 v 3.25958 3.25958 l 0.98789,-0.38044 0.9879,-0.38044 0.0917,1.07245 0.0917,1.07245 0.36132,-1.38252 0.36133,-1.38251 z m 1.12763,1.66577 v -0.39515 h -0.39516 -0.39516 v 0.39515 0.39516 h 0.39516 0.39516 z m -26.08049,-0.79031 v -0.39516 h -0.39516 -0.39516 v 0.39516 0.39516 h 0.39516 0.39516 z m 1.17451,-3.55643 0.011,-1.9758 2.37382,-0.23313 2.37382,-0.23313 -0.28003,-3.52088 -0.28002,-3.52088 h 1.26505 1.26506 v -1.18547 -1.18548 h 1.03645 1.03646 l 1.69661,-1.58064 1.69661,-1.58063 h 0.73119 0.73119 l 0.38596,-1.47593 0.38597,-1.47593 -1.23034,0.0929 -1.23033,0.0929 -0.54427,-2.56854 -0.54428,-2.56853 h 0.63659 0.63658 l -0.28679,-2.17337 -0.28679,-2.17338 -0.0545,-2.17337 -0.0545,-2.17338 h -0.79032 -0.79032 v 1.18548 1.18548 l -0.59274,0.0108 -0.59273,0.0108 -1.77822,0.47654 -1.77822,0.47655 v -1.21486 -1.21486 l 2.37096,-0.52075 2.37095,-0.52074 v -1.14749 -1.14749 l -1.18547,-0.45491 -1.18548,-0.45491 v -2.22054 -2.22053 l 0.74966,-0.26344 0.74966,-0.26344 0.0855,-9.08866 0.0855,-9.08865 -0.0449,-1.38306 -0.0449,-1.38305 h -0.79031 -0.79032 v 1.18547 1.18548 h -4.47847 -4.47847 l 0.45446,0.45446 0.45446,0.45446 1.3211,0.1939 1.32109,0.19389 0.58589,0.94799 0.58589,0.94798 1.88705,-0.21328 1.88705,-0.21329 0.30774,1.48594 0.30773,1.48593 -1.06566,0.67534 -1.06566,0.67534 -1.38305,0.0121 -1.38306,0.0121 -0.0624,-1.38306 -0.0624,-1.38305 -0.39862,0.98789 -0.39863,0.9879 h -1.16625 -1.16626 l 0.48844,-0.79032 0.48844,-0.79031 h -0.7711 -0.7711 l -0.39862,0.98789 -0.39863,0.9879 -0.0624,-8.42193 -0.0624,-8.42192 -1.58063,0.41334 -1.58064,0.41335 v -0.8825 -0.88249 h -0.79031 -0.79032 v 17.21135 17.21135 l -1.58967,1.36112 -1.58967,1.36112 h -0.73464 -0.73464 l -0.5653,0.91466 -0.5653,0.91467 3.74378,-0.51314 3.74378,-0.51314 1.51678,0.81176 1.51678,0.81175 v 5.0434 5.0434 l -0.98789,0.36223 -0.9879,0.36223 0.9879,1.04717 0.98789,1.04717 v 6.9548 6.9548 h -1.66519 -1.66519 l 0.47972,1.25011 0.47971,1.25012 v 1.56849 1.56849 l 2.1624,-0.25007 2.1624,-0.25008 z m 0.40613,-12.5405 v -1.59194 l 0.87868,-0.54305 0.87867,-0.54305 0.68911,1.08914 0.68911,1.08915 -0.25022,0.79032 -0.25022,0.79032 -1.31757,0.25553 -1.31756,0.25553 z m 7.11286,-9.49623 v -1.48846 l 1.7437,-0.45598 1.7437,-0.45599 0.36381,0.36381 0.36382,0.36381 h -0.92204 -0.92204 v 1.58064 1.58063 h -1.18547 -1.18548 z m -7.11286,-7.86363 v -0.6586 h 1.18547 1.18548 v 0.6586 0.6586 h -1.18548 -1.18547 z m -5.17963,-4.94249 -0.531,-0.85918 0.81066,-0.81066 0.81065,-0.81065 0.85918,0.531 0.85918,0.531 v 1.13884 1.13883 h -1.13883 -1.13883 z m 9.92153,-8.22947 v -1.18548 h 1.18548 1.18548 v 1.18548 1.18547 h -1.18548 -1.18548 z m 1.58064,0 v -0.39516 h -0.39516 -0.39516 v 0.39516 0.39516 h 0.39516 0.39516 z m -5.20762,-3.44227 0.41788,-0.67615 -1.95188,0.37313 -1.95188,0.37312 v -1.36978 -1.36979 l 1.77822,0.47654 1.77821,0.47655 0.59274,0.0108 0.59274,0.0108 v 1.18548 1.18547 h -0.83696 -0.83696 z m -1.90524,-1.29964 v -0.39516 h -0.39516 -0.39516 v 0.39516 0.39516 h 0.39516 0.39516 z m -3.68815,-5.66394 0.52688,-0.52688 0.52688,0.52688 0.52688,0.52687 h -1.05376 -1.05376 z m 0,-1.58064 0.52688,-0.52688 0.52688,0.52688 0.52688,0.52688 h -1.05376 -1.05376 z m -0.26344,-4.61019 v -1.18547 h 0.6586 0.6586 v 1.18547 1.18548 h -0.6586 -0.6586 z m -10.27413,56.90288 v -0.39515 h -0.39516 -0.39516 v 0.39515 0.39516 h 0.39516 0.39516 z m 5.52012,-4.28088 0.0121,-2.70026 -0.28642,0.3293 -0.28642,0.3293 -0.44968,3.51536 -0.44969,3.51535 0.72401,-1.1444 0.724,-1.1444 z m 2.38306,4.28088 v -0.39515 h -0.39516 -0.39516 v 0.39515 0.39516 h 0.39516 0.39516 z m 18.57247,-0.39515 -0.48845,-0.79032 h -1.47604 -1.47605 l -0.36143,-1.38306 -0.36143,-1.38305 -0.0917,2.17337 -0.0917,2.17337 h 2.41759 2.4176 z m -14.62088,-1.18548 v -0.39516 h -0.39516 -0.39516 v 0.39516 0.39516 h 0.39516 0.39516 z m 27.0916,-1.21682 -0.42154,-1.61199 -0.39242,0.39242 -0.39243,0.39242 0.46799,1.21957 0.46799,1.21956 h 0.34598 0.34597 z m -41.584229,-1.74687 -0.398625,-0.9879 v 1.97579 1.9758 l 0.398625,-0.9879 0.398626,-0.9879 z m 36.621529,2.17337 v -0.39516 h -0.39516 -0.39516 v 0.39516 0.39516 h 0.39516 0.39516 z m -31.61272,-0.79032 v -0.39516 h -0.39515 -0.39516 v 0.39516 0.39516 h 0.39516 0.39515 z m 7.68563,-6.11081 -0.31981,-2.58268 -0.008,4.7419 -0.008,4.74191 0.32788,-2.15922 0.32787,-2.15922 z m 19.18518,6.11081 v -0.39516 h -0.39516 -0.39516 v 0.39516 0.39516 h 0.39516 0.39516 z m -38.725573,-0.79031 v -0.39516 h -0.395159 -0.395159 v 0.39516 0.39515 h 0.395159 0.395159 z m 3.161271,0 v -0.39516 H 94.590799 94.19564 v 0.39516 0.39515 h 0.395159 0.395159 z m 1.580636,0 v -0.39516 h -0.395159 -0.395159 v 0.39516 0.39515 h 0.395159 0.395159 z m 12.645086,-0.79032 v -0.39516 h -0.39516 -0.39516 v 0.39516 0.39516 h 0.39516 0.39516 z m 13.96228,-0.92204 -0.52688,-0.52688 v 1.05376 1.05376 l 0.52688,-0.52688 0.52688,-0.52688 z m 2.63439,0.92204 v -0.39516 h -0.39516 -0.39516 v 0.39516 0.39516 h 0.39516 0.39516 z m 2.37096,0 v -0.39516 h -0.39516 -0.39516 v 0.39516 0.39516 h 0.39516 0.39516 z m 7.11286,0 v -0.39516 h -0.39516 -0.39516 v 0.39516 0.39516 h 0.39516 0.39516 z m -26.06012,-6.85966 2.51291,-2.51291 -0.3072,-5.43668 -0.3072,-5.43668 -1.0421,-0.64406 -1.0421,-0.64405 -2.36986,0.88805 -2.36985,0.88804 1.26704,0.25553 1.26704,0.25553 v 0.77901 0.77901 l -0.79032,-0.48844 -0.79032,-0.48844 v 0.83696 0.83696 h 1.516 1.51599 l 1.25012,0.47971 1.25011,0.47971 v 1.89124 1.89124 h -1.18547 -1.18548 v -1.18547 -1.18548 h -0.79032 -0.79031 v 1.18548 1.18547 h -2.11727 -2.11726 l -2.624645,-0.94908 -2.624644,-0.94909 v -1.02671 -1.02671 h 1.185477 1.185477 v -1.95099 -1.95099 l -1.185477,0.45491 -1.185477,0.45491 v 0.70576 0.70577 h -1.185476 -1.185477 v 2.40869 2.40869 l 2.173374,2.02568 2.173374,2.02568 1.975794,0.8117 1.9758,0.8117 1.77821,-0.10015 1.77822,-0.10016 v 1.11077 1.11076 l -0.9879,0.39863 -0.9879,0.39862 0.9271,0.0624 0.92711,0.0624 z m 0.24307,-11.44937 0.52688,-0.52688 0.52687,0.52688 0.52688,0.52688 h -1.05375 -1.05376 z m 23.44609,10.40585 v -0.39516 h -0.39516 -0.39516 v 0.39516 0.39516 h 0.39516 0.39516 z m -0.79032,-2.37095 v -0.39516 h -0.39515 -0.39516 v 0.39516 0.39516 h 0.39516 0.39515 z m 2.37096,-0.79032 V 252.139 h 1.58063 1.58064 l -0.0917,-1.77821 -0.0917,-1.77822 -0.36143,1.38306 -0.36143,1.38305 h -1.18249 -1.1825 l 0.25255,-1.77821 0.25255,-1.77822 3.16127,0.27999 3.16127,0.27999 0.48275,0.77417 0.48276,0.77418 0.5118,-1.33374 0.51181,-1.33374 1.18681,0.45542 1.18682,0.45543 2.82596,-2.74438 2.82596,-2.74438 h 1.03307 1.03307 l 0.46639,-1.2154 0.46639,-1.21539 c 2.05012,-6.68517 -1.25191,-0.4804 -1.25191,-0.4804 l -1.25192,-0.48041 -0.58794,0.95131 -0.58794,0.95131 -2.09841,-0.52666 -2.09841,-0.52667 v 1.2179 1.21789 l -1.57356,0.49943 -1.57356,0.49943 -0.79739,-0.49281 -0.79739,-0.49282 v 1.23212 1.23212 h -0.83696 -0.83696 l 0.5845,-0.94575 0.58451,-0.94574 -2.51503,1.79085 -2.51502,1.79085 -1.77685,-0.25236 -1.77685,-0.25237 -0.24528,-2.96369 -0.24529,-2.9637 h -0.65615 -0.65614 l -0.3325,2.84814 -0.33251,2.84814 1.03636,0.39769 1.03635,0.39769 v 2.61569 2.6157 l -0.98789,0.39863 -0.9879,0.39862 1.38306,0.0624 1.38305,0.0624 v 0.79032 0.79032 h 0.79032 0.79032 z m 3.16127,-6.74251 v -0.76551 h 1.18548 1.18547 v 0.3106 0.31061 l -1.18547,0.45491 -1.18548,0.45491 z m 6.32254,-1.42411 v -0.6586 h 1.18548 1.18547 v 0.6586 0.6586 h -1.18547 -1.18548 z m -3.95159,5.79567 v -0.39516 h -0.39516 -0.39516 v 0.39516 0.39515 h 0.39516 0.39516 z m -34.2471,-1.71236 -0.52688,-0.52688 v 1.05376 1.05376 l 0.52688,-0.52688 0.52688,-0.52688 z m 25.55361,0.15652 v -1.16067 l -1.18094,0.45317 -1.18094,0.45317 0.43726,0.7075 0.43726,0.70751 h 0.74368 0.74368 z m -41.096529,-3.18607 v -3.55643 h -1.185476 -1.185477 v -1.11962 -1.11962 l 0.987897,-0.39862 0.987897,-0.39863 -2.120879,-0.0624 -2.120879,-0.0624 -0.250074,2.17337 -0.250074,2.17337 -1.383056,-0.10976 -1.383057,-0.10977 v 0.61455 0.61455 l 2.766113,0.51893 2.766112,0.51892 v 0.78787 0.78786 l 0.987897,1.12206 0.987897,1.12206 0.19758,0.0301 0.197579,0.0301 z m 8.693496,3.16127 v -0.39516 h -0.395159 -0.395159 v 0.39516 0.39516 h 0.395159 0.395159 z m 2.370953,0 v -0.39516 h -0.39516 -0.39516 v 0.39516 0.39516 h 0.39516 0.39516 z m 39.51589,0 v -0.39516 h -0.39516 -0.39516 v 0.39516 0.39516 h 0.39516 0.39516 z m -48.999703,-0.79032 v -0.39516 h -0.395159 -0.395159 v 0.39516 0.39516 h 0.395159 0.395159 z m 37.935253,-0.79032 v -0.39515 h -0.39516 -0.39516 v 0.39515 0.39516 h 0.39516 0.39516 z m -37.935253,-0.79031 v -0.39516 h -0.395159 -0.395159 v 0.39516 0.39516 h 0.395159 0.395159 z m 10.850403,-0.0823 -0.47748,-0.47748 -1.03729,0.41509 -1.0373,0.41509 1.51478,0.0624 1.51478,0.0624 z m 1.79468,0.0823 v -0.39516 h -0.39516 -0.39516 v 0.39516 0.39516 h 0.39516 0.39516 z m -9.750718,-3.75401 -0.398625,-0.9879 v 1.97579 1.9758 l 0.398625,-0.9879 0.398626,-0.9879 z m -3.161271,-0.79032 -0.398625,-0.9879 v 1.9758 1.97579 l 0.398625,-0.9879 0.398626,-0.98789 z m 9.750719,2.17337 v -0.39516 h -0.39516 -0.39516 v 0.39516 0.39516 h 0.39516 0.39516 z m -19.757944,-1.58063 v -0.39516 h -0.395159 -0.395159 v 0.39516 0.39516 h 0.395159 0.395159 z m 26.080484,-0.79032 v -0.39516 h -0.39516 -0.39515 v 0.39516 0.39516 h 0.39515 0.39516 z m 3.95159,0 v -0.39516 h -0.39516 -0.39516 v 0.39516 0.39516 h 0.39516 0.39516 z m -31.61271,-0.79032 v -0.39516 h -0.395159 -0.395159 v 0.39516 0.39516 h 0.395159 0.395159 z m 2.370953,0 v -0.39516 h -0.395158 -0.395159 v 0.39516 0.39516 h 0.395159 0.395158 z m 7.112861,0 v -0.39516 h -0.395159 -0.395159 v 0.39516 0.39516 h 0.395159 0.395159 z m 35.564296,0 v -0.39516 h -0.39515 -0.39516 v 0.39516 0.39516 h 0.39516 0.39515 z m 20.54827,-0.39516 v -0.79032 h -0.34852 -0.34852 l -0.48844,0.79032 -0.48844,0.79032 h 0.83696 0.83696 z m -67.440455,-1.31719 -0.526878,-0.52688 v 1.05375 1.05376 l 0.526878,-0.52688 0.526879,-0.52688 z m 5.532225,-0.79032 -0.526879,-0.52688 v 1.05376 1.05375 l 0.526879,-0.52687 0.526878,-0.52688 z m 17.65043,0.13172 v -0.39516 h -0.39516 -0.39516 v 0.39516 0.39516 h 0.39516 0.39516 z m 31.61271,0 v -0.39516 h -0.39516 -0.39516 v 0.39516 0.39516 h 0.39516 0.39516 z m 17.38699,0 v -0.39516 h -0.39516 -0.39515 v 0.39516 0.39516 h 0.39515 0.39516 z m -67.967327,-0.79032 v -0.39516 h -0.395158 -0.395159 v 0.39516 0.39516 h 0.395159 0.395158 z m 42.413717,-4.08331 -0.52687,-0.52688 v 1.05376 1.05376 l 0.52687,-0.52688 0.52688,-0.52688 z M 106.84073,218.5505 v -0.39516 h -0.39516 -0.39516 v 0.39516 0.39515 h 0.39516 0.39516 z m 14.22571,0 v -0.39516 h -0.39515 -0.39516 v 0.39516 0.39515 h 0.39516 0.39515 z m -5.78266,-2.9143 -0.41509,-1.03729 -0.0624,1.51477 -0.0624,1.51478 0.47749,-0.47749 0.47748,-0.47748 z m 12.10521,-3.40825 v -0.39516 h -0.39516 -0.39516 v 0.39516 0.39516 h 0.39516 0.39516 z m -11.86994,-5.92738 -0.5526,-4.34675 -0.11127,4.01745 -0.11128,4.01745 0.52688,0.52688 0.52688,0.52688 0.13699,-0.19758 0.13699,-0.19758 z m 7.12803,4.34675 v -0.39516 h -0.39516 -0.39516 v 0.39516 0.39516 h 0.39516 0.39516 z m 4.49927,-3.34381 -0.36432,-1.3981 -0.0293,2.37095 -0.0293,2.37096 0.39361,-0.97286 0.39361,-0.97285 z m -3.2379,0.76317 0.86621,-0.58063 0.50921,-2.08295 0.5092,-2.08294 -1.08554,-0.90092 -1.08554,-0.90092 -0.48356,1.26014 -0.48356,1.26014 -1.55468,-0.49343 -1.55468,-0.49344 -1.61048,0.86191 -1.61049,0.86191 v 1.94798 1.94799 l 3.35885,-0.0121 3.35885,-0.0121 z m 4.00395,-5.12496 -0.39863,-0.9879 v 1.9758 1.97579 l 0.39863,-0.9879 0.39862,-0.98789 z m -7.89971,-2.70025 -0.52688,-0.52688 v 1.05376 1.05376 l 0.52688,-0.52688 0.52688,-0.52688 z m 2.63439,0.92204 v -0.39516 h -0.39516 -0.39516 v 0.39516 0.39516 h 0.39516 0.39516 z m -11.85477,-0.79032 v -0.39516 h -0.39516 -0.39515 v 0.39516 0.39516 h 0.39515 0.39516 z m 2.37096,0 v -0.39516 h -0.39516 -0.39516 v 0.39516 0.39516 h 0.39516 0.39516 z"
       id="path2" /></g></svg>
