<?xml version="1.0" encoding="UTF-8" standalone="no"?>
<!DOCTYPE svg PUBLIC "-//W3C//DTD SVG 1.1//EN" "http://www.w3.org/Graphics/SVG/1.1/DTD/svg11.dtd">
<svg width="100%" height="100%" viewBox="0 0 512 512" version="1.1" xmlns="http://www.w3.org/2000/svg" xmlns:xlink="http://www.w3.org/1999/xlink" xml:space="preserve" xmlns:serif="http://www.serif.com/" style="fill-rule:evenodd;clip-rule:evenodd;stroke-linecap:round;stroke-linejoin:round;stroke-miterlimit:1.5;">
    <g transform="matrix(1,0,0,1,-13.1705,-606.479)">
        <g id="Asente-" serif:id="Asente&apos;" transform="matrix(1,0,0,1,-1773.79,606.479)">
            <rect x="1786.96" y="0" width="512" height="512" style="fill:none;"/>
            <g transform="matrix(0.561006,0,0,0.561006,892.914,62.6821)">
                <g>
                    <g transform="matrix(0.249293,0.233168,-0.22689,0.242581,1419.76,-296.662)">
                        <g>
                            <g>
                                <g transform="matrix(1,0,0,1,143.134,9.75916)">
                                    <g transform="matrix(1,1.11022e-16,0,1,1936.95,-651.088)">
                                        <circle cx="184.992" cy="814.289" r="39.395" style="fill:none;stroke:black;stroke-width:11.03px;"/>
                                    </g>
                                    <g transform="matrix(1,1.11022e-16,0,1,1638.04,-651.088)">
                                        <path d="M224.387,814.289L444.509,814.289" style="fill:none;stroke:black;stroke-width:11.03px;"/>
                                    </g>
                                </g>
                                <g transform="matrix(1,1.11022e-16,0,1,1781.98,-642.954)">
                                    <circle cx="184.992" cy="814.289" r="39.395" style="fill:none;stroke:black;stroke-width:11.03px;"/>
                                </g>
                            </g>
                        </g>
                    </g>
                    <g transform="matrix(0.233168,-0.249293,0.242581,0.22689,1445.06,724.88)">
                        <g>
                            <g>
                                <g transform="matrix(1,0,0,1,143.134,9.75916)">
                                    <g transform="matrix(1,1.11022e-16,0,1,1936.95,-651.088)">
                                        <circle cx="184.992" cy="814.289" r="39.395" style="fill:none;stroke:black;stroke-width:11.03px;"/>
                                    </g>
                                    <g transform="matrix(1,1.11022e-16,0,1,1638.04,-651.088)">
                                        <path d="M224.387,814.289L444.509,814.289" style="fill:none;stroke:black;stroke-width:11.03px;"/>
                                    </g>
                                </g>
                                <g transform="matrix(1,1.11022e-16,0,1,1781.98,-642.954)">
                                    <circle cx="184.992" cy="814.289" r="39.395" style="fill:none;stroke:black;stroke-width:11.03px;"/>
                                </g>
                            </g>
                        </g>
                    </g>
                    <g transform="matrix(0.249293,-0.233168,-0.22689,-0.242581,1348.2,778.152)">
                        <g>
                            <g>
                                <g transform="matrix(1,0,0,1,143.134,9.75916)">
                                    <g transform="matrix(1,1.11022e-16,0,1,1936.95,-651.088)">
                                        <circle cx="184.992" cy="814.289" r="39.395" style="fill:none;stroke:black;stroke-width:11.03px;"/>
                                    </g>
                                    <g transform="matrix(1,1.11022e-16,0,1,1638.04,-651.088)">
                                        <path d="M224.387,814.289L444.509,814.289" style="fill:none;stroke:black;stroke-width:11.03px;"/>
                                    </g>
                                </g>
                                <g transform="matrix(1,1.11022e-16,0,1,1781.98,-642.954)">
                                    <circle cx="184.992" cy="814.289" r="39.395" style="fill:none;stroke:black;stroke-width:11.03px;"/>
                                </g>
                            </g>
                        </g>
                    </g>
                    <g transform="matrix(-0.249293,0.233168,0.22689,0.242581,2543.05,-173.084)">
                        <g>
                            <g>
                                <g transform="matrix(1,0,0,1,143.134,9.75916)">
                                    <g transform="matrix(1,1.11022e-16,0,1,1936.95,-651.088)">
                                        <circle cx="184.992" cy="814.289" r="39.395" style="fill:none;stroke:black;stroke-width:11.03px;"/>
                                    </g>
                                    <g transform="matrix(1,1.11022e-16,0,1,1638.04,-651.088)">
                                        <path d="M224.387,814.289L225.158,814.289M231.251,814.289L444.509,814.289" style="fill:none;stroke:black;stroke-width:11.03px;"/>
                                    </g>
                                </g>
                                <g transform="matrix(1,1.11022e-16,0,1,1781.98,-642.954)">
                                    <path d="M206.631,847.206C202.1,850.192 196.918,852.268 191.346,853.173L191.549,850.053C196.854,850.189 201.957,849.17 206.631,847.206Z" style="fill:none;stroke:black;stroke-width:11.03px;"/>
                                </g>
                            </g>
                        </g>
                    </g>
                    <g transform="matrix(0.249293,-0.233168,-0.22689,-0.242581,1707.33,703.982)">
                        <g>
                            <g>
                                <g transform="matrix(1,0,0,1,143.134,9.75916)">
                                    <g transform="matrix(1,1.11022e-16,0,1,1936.95,-651.088)">
                                        <circle cx="184.992" cy="814.289" r="39.395" style="fill:none;stroke:black;stroke-width:11.03px;"/>
                                    </g>
                                    <g transform="matrix(1,1.11022e-16,0,1,1638.04,-651.088)">
                                        <path d="M224.387,814.289L444.509,814.289" style="fill:none;stroke:black;stroke-width:11.03px;"/>
                                    </g>
                                </g>
                                <g transform="matrix(1,1.11022e-16,0,1,1781.98,-642.954)">
                                    <circle cx="184.992" cy="814.289" r="39.395" style="fill:none;stroke:black;stroke-width:11.03px;"/>
                                </g>
                            </g>
                        </g>
                    </g>
                    <g transform="matrix(-0.248835,0.233656,0.227365,0.242136,2438.91,-70.2461)">
                        <g>
                            <g>
                                <g>
                                    <g transform="matrix(1,1.11022e-16,0,1,1936.95,-651.088)">
                                        <circle cx="184.992" cy="814.289" r="39.395" style="fill:none;stroke:black;stroke-width:11.03px;"/>
                                    </g>
                                    <g transform="matrix(1,1.11022e-16,0,1,1638.04,-651.088)">
                                        <path d="M224.387,814.289L444.509,814.289" style="fill:none;stroke:black;stroke-width:11.03px;"/>
                                    </g>
                                </g>
                            </g>
                        </g>
                    </g>
                    <g transform="matrix(0.233168,-0.249293,0.242581,0.22689,1445.06,815.277)">
                        <g>
                            <g>
                                <g transform="matrix(1,1.11022e-16,0,1,1781.17,-641.329)">
                                    <path d="M224.387,814.289L444.509,814.289" style="fill:none;stroke:black;stroke-width:11.03px;"/>
                                </g>
                                <g transform="matrix(1,1.11022e-16,0,1,1781.98,-642.954)">
                                    <circle cx="184.992" cy="814.289" r="39.395" style="fill:none;stroke:black;stroke-width:11.03px;"/>
                                </g>
                            </g>
                        </g>
                    </g>
                    <g transform="matrix(0.249293,0.233168,-0.22689,0.242581,1670.6,-136.709)">
                        <g>
                            <g>
                                <g>
                                    <g transform="matrix(1,1.11022e-16,0,1,1936.95,-651.088)">
                                        <circle cx="184.992" cy="814.289" r="39.395" style="fill:none;stroke:black;stroke-width:11.03px;"/>
                                    </g>
                                    <g transform="matrix(1,1.11022e-16,0,1,1638.04,-651.088)">
                                        <path d="M224.387,814.289L225.158,814.289M228.201,814.289L444.509,814.289" style="fill:none;stroke:black;stroke-width:11.03px;"/>
                                    </g>
                                </g>
                            </g>
                        </g>
                    </g>
                    <g transform="matrix(1,0,0,1,1773.79,-606.479)">
                        <path d="M306.823,944.585C306.502,944.334 306.188,944.066 305.884,943.782C300.464,938.712 300.068,930.314 305.001,925.04C307.431,922.442 310.703,921.083 314.046,920.979C318.767,919.474 324.076,920.632 327.607,924.407C332.54,929.681 332.145,938.079 326.724,943.149C326.185,943.653 325.617,944.106 325.025,944.507L324.266,943.797C322.975,945.067 321.471,946.01 319.86,946.623C315.623,948.237 310.642,947.57 306.823,944.585Z" style="fill:none;stroke:black;stroke-width:3.71px;"/>
                    </g>
                    <g transform="matrix(0.233168,-0.249293,0.242581,0.22689,1662.43,849.091)">
                        <g>
                            <g>
                                <g transform="matrix(1,0,0,1,143.134,9.75916)">
                                    <g transform="matrix(1,1.11022e-16,0,1,1936.95,-651.088)">
                                        <circle cx="184.992" cy="814.289" r="39.395" style="fill:none;stroke:black;stroke-width:11.03px;"/>
                                    </g>
                                    <g transform="matrix(1,1.11022e-16,0,1,1638.04,-651.088)">
                                        <path d="M224.387,814.289L444.509,814.289" style="fill:none;stroke:black;stroke-width:11.03px;"/>
                                    </g>
                                </g>
                                <g transform="matrix(1,1.11022e-16,0,1,1781.98,-642.954)">
                                    <circle cx="184.992" cy="814.289" r="39.395" style="fill:none;stroke:black;stroke-width:11.03px;"/>
                                </g>
                            </g>
                        </g>
                    </g>
                    <g transform="matrix(0.249293,-0.233168,-0.22689,-0.242581,1563.61,699.212)">
                        <g>
                            <g>
                                <g transform="matrix(1,0,0,1,143.134,9.75916)">
                                    <g transform="matrix(1,1.11022e-16,0,1,1936.95,-651.088)">
                                        <circle cx="184.992" cy="814.289" r="39.395" style="fill:none;stroke:black;stroke-width:11.03px;"/>
                                    </g>
                                    <g transform="matrix(1,1.11022e-16,0,1,1638.04,-651.088)">
                                        <path d="M224.387,814.289L444.509,814.289" style="fill:none;stroke:black;stroke-width:11.03px;"/>
                                    </g>
                                </g>
                                <g transform="matrix(1,1.11022e-16,0,1,1781.98,-642.954)">
                                    <circle cx="184.992" cy="814.289" r="39.395" style="fill:none;stroke:black;stroke-width:11.03px;"/>
                                </g>
                            </g>
                        </g>
                    </g>
                    <g transform="matrix(0.233168,0.249293,0.242581,-0.22689,1588.91,-322.33)">
                        <g>
                            <g>
                                <g transform="matrix(1,0,0,1,143.134,9.75916)">
                                    <g transform="matrix(1,1.11022e-16,0,1,1936.95,-651.088)">
                                        <circle cx="184.992" cy="814.289" r="39.395" style="fill:none;stroke:black;stroke-width:11.03px;"/>
                                    </g>
                                    <g transform="matrix(1,1.11022e-16,0,1,1638.04,-651.088)">
                                        <path d="M224.387,814.289L444.509,814.289" style="fill:none;stroke:black;stroke-width:11.03px;"/>
                                    </g>
                                </g>
                                <g transform="matrix(1,1.11022e-16,0,1,1781.98,-642.954)">
                                    <circle cx="184.992" cy="814.289" r="39.395" style="fill:none;stroke:black;stroke-width:11.03px;"/>
                                </g>
                            </g>
                        </g>
                    </g>
                    <g transform="matrix(0.249293,-0.233168,-0.22689,-0.242581,1597.08,752.639)">
                        <g>
                            <g>
                                <g>
                                    <g transform="matrix(1,1.11022e-16,0,1,1936.95,-651.088)">
                                        <circle cx="184.992" cy="814.289" r="39.395" style="fill:none;stroke:black;stroke-width:11.03px;"/>
                                    </g>
                                    <g transform="matrix(1,1.11022e-16,0,1,1638.04,-651.088)">
                                        <path d="M224.387,814.289L444.509,814.289" style="fill:none;stroke:black;stroke-width:11.03px;"/>
                                    </g>
                                </g>
                            </g>
                        </g>
                    </g>
                    <g transform="matrix(0.233168,0.249293,0.242581,-0.22689,1588.91,-233.161)">
                        <g>
                            <g>
                                <g transform="matrix(1,1.11022e-16,0,1,1781.17,-641.329)">
                                    <path d="M224.387,814.289L444.509,814.289" style="fill:none;stroke:black;stroke-width:11.03px;"/>
                                </g>
                                <g transform="matrix(1,1.11022e-16,0,1,1781.98,-642.954)">
                                    <circle cx="184.992" cy="814.289" r="39.395" style="fill:none;stroke:black;stroke-width:11.03px;"/>
                                </g>
                            </g>
                        </g>
                    </g>
                    <g transform="matrix(1,0,0,1,1773.79,-606.479)">
                        <path d="M376.039,888.922C381.314,883.989 389.712,884.384 394.781,889.804C395.579,890.657 396.247,891.584 396.786,892.559C401.523,897.674 401.669,905.555 396.96,910.589C396.836,910.721 396.711,910.85 396.583,910.976C391.608,915.869 383.486,915.903 378.201,910.96C377.107,909.937 376.218,908.778 375.536,907.537C370.602,902.112 370.812,893.811 376.039,888.922Z" style="fill:none;stroke:black;stroke-width:3.71px;"/>
                    </g>
                    <g transform="matrix(1,0,0,1,1773.79,-606.479)">
                        <path d="M232.188,906.153C229.46,903.602 228.099,900.123 228.121,896.609C227.628,892.512 229.066,888.193 232.365,885.107C237.65,880.164 245.772,880.199 250.747,885.092C250.875,885.217 251.001,885.346 251.124,885.478C253.553,888.075 254.691,891.43 254.572,894.772C254.905,898.461 253.698,902.311 250.929,905.271C245.86,910.691 237.462,911.086 232.188,906.153Z" style="fill:none;stroke:black;stroke-width:3.71px;"/>
                    </g>
                </g>
            </g>
        </g>
    </g>
</svg>
