<?xml version="1.0" encoding="UTF-8" standalone="no"?><!DOCTYPE svg PUBLIC "-//W3C//DTD SVG 1.1//EN" "http://www.w3.org/Graphics/SVG/1.1/DTD/svg11.dtd"><svg width="100%" height="100%" viewBox="0 0 512 512" version="1.1" xmlns="http://www.w3.org/2000/svg" xmlns:xlink="http://www.w3.org/1999/xlink" xml:space="preserve" xmlns:serif="http://www.serif.com/" style="fill-rule:evenodd;clip-rule:evenodd;stroke-linecap:round;stroke-linejoin:round;stroke-miterlimit:1.5;"><rect id="Ikaki-Variation-" serif:id="Ikaki(Variation)" x="0" y="0" width="512" height="512" style="fill:none;"/><g id="Ikaki-Variation-1" serif:id="Ikaki(Variation)"><g><path d="M290.825,159.795l123.26,123.259l-123.26,123.259l-123.259,-123.259l123.259,-123.259Z" style="fill:none;stroke:#000;stroke-width:2.08px;"/><path d="M197.692,196.856l174.315,0l0,174.315l-174.315,0l0,-174.315Z" style="fill:none;stroke:#000;stroke-width:2.08px;"/><rect x="307.828" y="196.323" width="32" height="32" style="fill:none;stroke:#000;stroke-width:2.08px;"/><rect x="339.859" y="196.323" width="32" height="32" style="fill:none;stroke:#000;stroke-width:2.08px;"/><rect x="197.672" y="195.541" width="32" height="32" style="fill:none;stroke:#000;stroke-width:2.08px;"/><rect x="229.703" y="195.541" width="32" height="32" style="fill:none;stroke:#000;stroke-width:2.08px;"/><rect x="309.39" y="337.729" width="32" height="32" style="fill:none;stroke:#000;stroke-width:2.08px;"/><rect x="341.422" y="337.729" width="32" height="32" style="fill:none;stroke:#000;stroke-width:2.08px;"/><rect x="198.453" y="338.51" width="32" height="32" style="fill:none;stroke:#000;stroke-width:2.08px;"/><rect x="230.484" y="338.51" width="32" height="32" style="fill:none;stroke:#000;stroke-width:2.08px;"/><path d="M290.825,214.081l64,64l-64,64l-64,-64l64,-64Z" style="fill:none;stroke:#000;stroke-width:2.08px;"/><path d="M290.639,238.621l32.581,32.581l-32.581,32.581l-32.581,-32.581l32.581,-32.581Z" style="fill:none;stroke:#000;stroke-width:2.08px;"/></g></g></svg>