<?xml version="1.0" encoding="UTF-8" standalone="no"?><!DOCTYPE svg PUBLIC "-//W3C//DTD SVG 1.1//EN" "http://www.w3.org/Graphics/SVG/1.1/DTD/svg11.dtd"><svg width="100%" height="100%" viewBox="0 0 1838 1299" version="1.1" xmlns="http://www.w3.org/2000/svg" xmlns:xlink="http://www.w3.org/1999/xlink" xml:space="preserve" xmlns:serif="http://www.serif.com/" style="fill-rule:evenodd;clip-rule:evenodd;stroke-linejoin:round;stroke-miterlimit:2;"><rect id="King" x="0" y="0" width="1837.16" height="1299" style="fill:none;"/><g><g><rect x="952.506" y="339.859" width="45.362" height="628.03" style="fill:#ebebeb;"/><g><g><path d="M1300.01,1100.71l-320.756,-222.042l-64.151,44.408l320.756,222.042l64.151,-44.408Z" style="fill:#ebebeb;"/><path d="M650.367,1105.24l320.756,-222.042l64.151,44.408l-320.755,222.042l-64.152,-44.408Z" style="fill:#ebebeb;"/></g></g><g><g><path d="M1300.01,185.513l-320.756,222.042l-64.151,-44.408l320.756,-222.042l64.151,44.408Z" style="fill:#ebebeb;"/><path d="M650.367,180.988l320.756,222.042l64.151,-44.408l-320.755,-222.042l-64.152,44.408Z" style="fill:#ebebeb;"/></g></g></g><g><g><path d="M1216.73,115.843l-240.131,166.23l-48.027,-33.246l240.132,-166.23l48.026,33.246Z" style="fill:#ebebeb;"/><path d="M730.379,112.455l240.132,166.23l48.026,-33.246l-240.131,-166.23l-48.027,33.246Z" style="fill:#ebebeb;"/></g></g><g><g><g><path d="M1228.87,1198.48l-250.513,-173.417l-50.103,34.683l250.514,173.417l50.102,-34.683Z" style="fill:#ebebeb;"/><path d="M721.5,1202.01l250.513,-173.417l50.103,34.683l-250.513,173.417l-50.103,-34.683Z" style="fill:#ebebeb;"/></g></g></g><g><g><path d="M1149.01,1250.03l-173.258,-119.937l-34.651,23.987l173.258,119.938l34.651,-23.988Z" style="fill:#ebebeb;"/><path d="M798.1,1252.48l173.258,-119.937l34.652,23.987l-173.259,119.938l-34.651,-23.988Z" style="fill:#ebebeb;"/></g></g></g><g><g><g><g><path d="M1330.19,664.534l-675.968,-0l-0,-18.645l675.968,-0l-0,18.645Z" style="fill:#ebebeb;"/><g><g><path d="M511.256,788.719l238.991,-131.837l-47.798,-26.368l-238.991,131.838l47.798,26.367Z" style="fill:#ebebeb;"/><path d="M506.386,521.703l238.991,131.838l-47.798,26.367l-238.991,-131.837l47.798,-26.368Z" style="fill:#ebebeb;"/></g></g><g><g><path d="M1496.31,788.719l-238.991,-131.837l47.798,-26.368l238.991,131.838l-47.798,26.367Z" style="fill:#ebebeb;"/><path d="M1501.18,521.703l-238.991,131.838l47.799,26.367l238.99,-131.837l-47.798,-26.368Z" style="fill:#ebebeb;"/></g></g></g></g></g></g></svg>