<?xml version="1.0" encoding="UTF-8" standalone="no"?><!DOCTYPE svg PUBLIC "-//W3C//DTD SVG 1.1//EN" "http://www.w3.org/Graphics/SVG/1.1/DTD/svg11.dtd"><svg width="100%" height="100%" viewBox="0 0 513 513" version="1.1" xmlns="http://www.w3.org/2000/svg" xmlns:xlink="http://www.w3.org/1999/xlink" xml:space="preserve" xmlns:serif="http://www.serif.com/" style="fill-rule:evenodd;clip-rule:evenodd;stroke-linecap:round;stroke-linejoin:round;stroke-miterlimit:1.5;"><rect id="Nnunnu-bird-" serif:id="Nnunnu(bird)" x="0.656" y="0.62" width="512" height="512" style="fill:none;"/><g><path d="M189.899,464.145l-5.651,11.75l-0.349,-0l6,-11.75Zm-40.726,-8.431l45.147,-93.884l0.344,1.167l1.847,-0l-47.338,92.717Zm40.726,8.431l-5.651,11.75l-0.349,-0l6,-11.75Z" style="fill:none;stroke:#000;stroke-width:2.08px;"/><path d="M197.008,362.023l0.264,0.974l-0.761,-0l0.497,-0.974Zm41.439,1.165l2.996,0l-51.544,100.957l48.548,-100.957Zm-98.979,112.707l-0.599,-0l10.304,-20.181l-9.705,20.181Zm214.391,-0l0.599,-0l-53.652,-117.088l-1.307,4.046l54.36,113.042Zm-115.412,-112.707l2.996,0l-51.544,100.957l48.548,-100.957Zm-98.979,112.707l-0.599,-0l10.304,-20.181l-9.705,20.181Z" style="fill:none;stroke:#000;stroke-width:2.08px;"/></g><path d="M157.729,229.941l-85.771,15.193l-13.245,-36.879l33.99,-6.021l-36.528,-9.081l0.767,-36.269l51.38,12.774l-47.548,-40.088l18.59,-26.953l9.212,7.766l-28.546,-36.761l25.894,-19.343l41.093,52.92l-18.026,-37.454l31.433,-10.415l26.765,55.614l1.1,-51.977l35.852,8.913l-1.492,70.536l29.685,-60.636l32.728,22.325l-52.834,86.41l-65.169,-0l10.67,39.426Z" style="fill:none;stroke:#000;stroke-width:2.08px;"/><path d="M196.881,362.273l0.127,-0.25l0.068,0.25l-0.195,0Zm-2.774,0l0.213,-0.443l0.131,0.443l-0.344,0Z" style="fill:none;stroke:#000;stroke-width:2.08px;"/><path d="M197.272,362.997l-0.761,-0l-47.338,92.717l-9.705,20.181l44.431,-0l6,-11.75l48.548,-100.957m-0,0l-48.548,100.957l-6,11.75l-44.431,-0l9.705,-20.181l47.338,-92.717l0.761,-0" style="fill:none;stroke:#000;stroke-width:2.08px;"/><path d="M353.859,475.895l-44.779,-0l-54.639,-113.622l43.017,-3.665l56.401,117.287Zm-206.8,-285.38l152.239,-0c-0,-0 25.167,-76.073 38.305,-91.559c8.743,-10.306 40.07,-14.864 40.52,-1.357c0.672,20.192 -36.487,122.511 -36.487,122.511l-47.91,137.774l-100.186,4.389l-46.481,-171.758Z" style="fill:none;stroke:#000;stroke-width:2.08px;"/></svg>