<?xml version="1.0" encoding="UTF-8" standalone="no"?><!DOCTYPE svg PUBLIC "-//W3C//DTD SVG 1.1//EN" "http://www.w3.org/Graphics/SVG/1.1/DTD/svg11.dtd"><svg width="100%" height="100%" viewBox="0 0 513 512" version="1.1" xmlns="http://www.w3.org/2000/svg" xmlns:xlink="http://www.w3.org/1999/xlink" xml:space="preserve" xmlns:serif="http://www.serif.com/" style="fill-rule:evenodd;clip-rule:evenodd;stroke-linecap:round;stroke-linejoin:round;stroke-miterlimit:1.5;"><rect id="StarStruck-Vs-" serif:id="StarStruck(Vs)" x="0.625" y="0" width="512" height="512" style="fill:none;"/><g><g><g><path d="M208.87,190.256l-10.947,-10.827l1.842,-52.874l48.702,27.624l48.987,-23.282l-2.578,51.827l-8.888,8.253l-19.399,1.199l-20.785,34.611l-0.01,-0.009l-18.549,-36.522l-18.375,0Z" style="fill:none;stroke:#000;stroke-width:2.08px;"/><path d="M230.719,187.277l-4.785,-4.733l0.805,-23.114l21.29,12.076l21.415,-10.178l-1.127,22.656l-3.886,3.608l-8.48,0.524l-9.086,15.131l-0.004,-0.004l-8.109,-15.966l-8.033,0Z" style="fill:none;stroke:#000;stroke-width:2.08px;"/><path d="M238.177,184.559l-2.682,-2.567l0.451,-12.536l11.933,6.55l12.004,-5.521l-0.632,12.289l-2.178,1.956l-4.753,0.284l-5.093,8.207l-0.002,-0.002l-4.545,-8.66l-4.503,0Z" style="fill:none;stroke:#000;stroke-width:2.08px;"/><path d="M266.589,192.176l25.603,-1.583l-47.098,76.627l-45.904,-76.964l28.055,0l18.556,36.535l20.788,-34.615Z" style="fill:none;stroke:#000;stroke-width:2.08px;"/></g><g><path d="M159.423,257.206l-14.637,3.386l-46.294,-28.731l46.806,-25.643l1.557,-52.086l45.025,28.794l3.309,11.525l-7.767,16.496l21.387,34.835l-0.012,0.003l-41.005,-3.621l-8.369,15.042Z" style="fill:none;stroke:#000;stroke-width:2.08px;"/><path d="M165.918,235.811l-6.399,1.48l-20.237,-12.559l20.461,-11.21l0.681,-22.769l19.682,12.587l1.447,5.038l-3.395,7.212l9.349,15.227l-0.006,0.002l-17.925,-1.583l-3.658,6.575Z" style="fill:none;stroke:#000;stroke-width:2.08px;"/><path d="M166.892,228.307l-3.51,0.874l-10.969,-6.824l11.273,-6.396l0.546,-12.667l10.666,6.844l0.752,2.79l-1.911,4.037l4.996,8.394l-0.003,0.001l-9.789,-0.738l-2.051,3.685Z" style="fill:none;stroke:#000;stroke-width:2.08px;"/><path d="M188.161,210.496l10.49,-22.28l47.948,79.824l-91.601,-2.098l13.075,-23.501l41.976,3.706l-21.888,-35.651Z" style="fill:none;stroke:#000;stroke-width:2.08px;"/></g></g><g><g><path d="M330.023,275.655l14.666,-3.795l44.638,27.324l-47.552,26.908l-3.85,51.981l-43.378,-27.425l-2.77,-11.396l8.432,-16.672l-19.668,-34.123l0.013,-0.003l40.504,2.438l8.965,-15.237Z" style="fill:none;stroke:#000;stroke-width:2.08px;"/><path d="M321.929,295.226l6.411,-1.658l19.513,11.944l-20.787,11.763l-1.683,22.723l-18.963,-11.988l-1.211,-4.982l3.686,-7.288l-8.597,-14.917l0.005,-0.001l17.706,1.065l3.92,-6.661Z" style="fill:none;stroke:#000;stroke-width:2.08px;"/><path d="M320.63,302.737l3.52,-0.972l10.576,6.491l-11.463,6.699l-1.102,12.647l-10.275,-6.519l-0.622,-2.761l2.074,-4.08l-4.582,-8.227l0.002,-0.001l9.676,0.456l2.196,-3.733Z" style="fill:none;stroke:#000;stroke-width:2.08px;"/><path d="M300.209,322.58l-11.129,22.003l-43.014,-76.441l88.68,-0.514l-13.688,23.264l-40.519,-2.439l19.67,34.127Z" style="fill:none;stroke:#000;stroke-width:2.08px;"/></g><g><path d="M330.023,275.655l14.666,-3.795l44.638,27.324l-47.552,26.908l-3.85,51.981l-43.378,-27.425l-2.77,-11.396l8.432,-16.672l-19.668,-34.123l0.013,-0.003l40.504,2.438l8.965,-15.237Z" style="fill:none;stroke:#000;stroke-width:2.08px;"/><path d="M321.929,295.226l6.411,-1.658l19.513,11.944l-20.787,11.763l-1.683,22.723l-18.963,-11.988l-1.211,-4.982l3.686,-7.288l-8.597,-14.917l0.005,-0.001l17.706,1.065l3.92,-6.661Z" style="fill:none;stroke:#000;stroke-width:2.08px;"/><path d="M320.63,302.737l3.52,-0.972l10.576,6.491l-11.463,6.699l-1.102,12.647l-10.275,-6.519l-0.622,-2.761l2.074,-4.08l-4.582,-8.227l0.002,-0.001l9.676,0.456l2.196,-3.733Z" style="fill:none;stroke:#000;stroke-width:2.08px;"/><path d="M300.209,322.58l-11.129,22.003l-43.014,-76.441l88.68,-0.514l-13.688,23.264l-40.519,-2.439l19.67,34.127Z" style="fill:none;stroke:#000;stroke-width:2.08px;"/></g><g><path d="M295.091,199.604l4.203,-14.42l47.612,-25.841l-0.547,53.541l44.564,27.464l-47.049,24.705l-11.645,-2.901l-10.561,-15.021l-40.759,1.13l0.004,-0.012l23.179,-33.83l-9.001,-14.815Z" style="fill:none;stroke:#000;stroke-width:2.08px;"/><path d="M308.425,215.681l1.838,-6.304l20.813,-11.296l-0.239,23.405l19.481,12.006l-20.567,10.799l-5.091,-1.268l-4.617,-6.566l-17.817,0.494l0.001,-0.005l10.133,-14.789l-3.935,-6.476Z" style="fill:none;stroke:#000;stroke-width:2.08px;"/><path d="M314.479,220.289l0.954,-3.489l11.296,-6.115l0.06,13.006l10.756,6.825l-11.165,5.841l-2.796,-0.745l-2.579,-3.685l-9.744,0.134l0,-0.002l5.424,-8.14l-2.206,-3.63Z" style="fill:none;stroke:#000;stroke-width:2.08px;"/><path d="M323.201,246.692l14.218,20.222l-92.582,1.661l46.418,-78.322l14.017,23.072l-23.651,34.519l41.58,-1.152Z" style="fill:none;stroke:#000;stroke-width:2.08px;"/></g></g><g><g><path d="M206.704,340.619l-11.132,10.108l-0.452,51.623l48.654,-24.937l46.77,24.702l-0.311,-50.633l-8.314,-8.409l-18.862,-1.963l-18.793,-34.594l-0.009,0.008l-19.637,34.847l-17.914,-0.752Z" style="fill:none;stroke:#000;stroke-width:2.08px;"/><path d="M227.879,344.418l-4.866,4.418l-0.198,22.567l21.269,-10.901l20.445,10.799l-0.136,-22.134l-3.634,-3.676l-8.246,-0.858l-8.215,-15.123l-0.004,0.003l-8.584,15.234l-7.831,-0.329Z" style="fill:none;stroke:#000;stroke-width:2.08px;"/><path d="M235.034,347.373l-2.724,2.393l-0.093,12.24l11.913,-5.897l11.467,5.873l-0.093,-12.006l-2.04,-1.996l-4.622,-0.472l-4.617,-8.209l-0.002,0.002l-4.799,8.256l-4.39,-0.184Z" style="fill:none;stroke:#000;stroke-width:2.08px;"/><path d="M263.057,341.11l24.894,2.591l-42.659,-76.633l-48.025,73.155l27.351,1.148l19.644,-34.859l18.795,34.598Z" style="fill:none;stroke:#000;stroke-width:2.08px;"/></g><g><path d="M206.704,340.619l-11.132,10.108l-0.452,51.623l48.654,-24.937l46.77,24.702l-0.311,-50.633l-8.314,-8.409l-18.862,-1.963l-18.793,-34.594l-0.009,0.008l-19.637,34.847l-17.914,-0.752Z" style="fill:none;stroke:#000;stroke-width:2.08px;"/><path d="M227.879,344.418l-4.866,4.418l-0.198,22.567l21.269,-10.901l20.445,10.799l-0.136,-22.134l-3.634,-3.676l-8.246,-0.858l-8.215,-15.123l-0.004,0.003l-8.584,15.234l-7.831,-0.329Z" style="fill:none;stroke:#000;stroke-width:2.08px;"/><path d="M235.034,347.373l-2.724,2.393l-0.093,12.24l11.913,-5.897l11.467,5.873l-0.093,-12.006l-2.04,-1.996l-4.622,-0.472l-4.617,-8.209l-0.002,0.002l-4.799,8.256l-4.39,-0.184Z" style="fill:none;stroke:#000;stroke-width:2.08px;"/><path d="M263.057,341.11l24.894,2.591l-42.659,-76.633l-48.025,73.155l27.351,1.148l19.644,-34.859l18.795,34.598Z" style="fill:none;stroke:#000;stroke-width:2.08px;"/></g><g><path d="M160.045,270.889l-14.657,-4.258l-47.769,25.56l46.338,28.275l-0.292,51.636l46.49,-25.702l3.754,-11.199l-7.251,-16.805l22.84,-33.143l-0.012,-0.004l-41.53,1.042l-7.911,-15.402Z" style="fill:none;stroke:#000;stroke-width:2.08px;"/><path d="M166.716,290.556l-6.407,-1.861l-20.883,11.173l20.257,12.36l-0.128,22.573l20.323,-11.236l1.641,-4.895l-3.17,-7.346l9.985,-14.489l-0.005,-0.001l-18.155,0.455l-3.458,-6.733Z" style="fill:none;stroke:#000;stroke-width:2.08px;"/><path d="M167.431,298.042l-3.513,-1.083l-11.319,6.073l11.152,7.027l0.098,12.569l11.014,-6.111l0.86,-2.715l-1.786,-4.113l5.345,-7.996l-0.003,-0.001l-9.91,0.123l-1.938,-3.773Z" style="fill:none;stroke:#000;stroke-width:2.08px;"/><path d="M186.658,318.396l9.569,22.179l50.101,-74.282l-90.45,-3.518l12.078,23.516l41.545,-1.042l-22.843,33.147Z" style="fill:none;stroke:#000;stroke-width:2.08px;"/></g></g></g></svg>