<?xml version="1.0" encoding="UTF-8" standalone="no"?><!DOCTYPE svg PUBLIC "-//W3C//DTD SVG 1.1//EN" "http://www.w3.org/Graphics/SVG/1.1/DTD/svg11.dtd"><svg width="100%" height="100%" viewBox="0 0 513 512" version="1.1" xmlns="http://www.w3.org/2000/svg" xmlns:xlink="http://www.w3.org/1999/xlink" xml:space="preserve" xmlns:serif="http://www.serif.com/" style="fill-rule:evenodd;clip-rule:evenodd;stroke-linecap:round;stroke-linejoin:round;stroke-miterlimit:1.5;"><rect id="StarStruck-V1s-" serif:id="StarStruck(V1s)" x="0.938" y="0" width="512" height="512" style="fill:none;"/><g><path d="M225.697,179.661l-9.679,-9.757l1.628,-47.647l43.064,24.893l43.317,-20.981l-2.28,46.704l-7.859,7.437l-17.154,1.08l-18.379,31.191l-0.008,-0.008l-16.402,-32.912l-16.248,-0Z" style="fill:none;stroke:#000;stroke-width:2.08px;"/><path d="M240.98,174.21l-5.369,-5.413l0.903,-26.431l23.89,13.809l24.03,-11.639l-1.265,25.909l-4.36,4.125l-9.516,0.599l-10.196,17.303l-0.004,-0.005l-9.099,-18.257l-9.014,-0Z" style="fill:none;stroke:#000;stroke-width:2.08px;"/><path d="M249.695,171.102l-2.913,-2.935l0.49,-14.336l12.957,7.489l13.033,-6.312l-0.686,14.052l-2.364,2.237l-5.162,0.325l-5.529,9.385l-0.003,-0.003l-4.935,-9.902l-4.888,0Z" style="fill:none;stroke:#000;stroke-width:2.08px;"/><path d="M276.734,181.39l22.64,-1.426l-41.646,69.052l-40.591,-69.355l24.808,-0l16.408,32.923l18.381,-31.194Z" style="fill:none;stroke:#000;stroke-width:2.08px;"/><path d="M304.613,188.787l4.254,-13.068l43.124,-20.328l-2.459,49.681l38.458,28.94l-42.583,19.317l-10.207,-3.592l-8.8,-14.764l-36.142,-2.092l0.003,-0.011l21.778,-29.631l-7.426,-14.452Z" style="fill:none;stroke:#000;stroke-width:2.08px;"/><path d="M316.446,199.89l2.36,-7.249l23.923,-11.277l-1.364,27.56l21.334,16.054l-23.623,10.716l-5.662,-1.992l-4.882,-8.19l-20.049,-1.161l0.002,-0.006l12.081,-16.437l-4.12,-8.018Z" style="fill:none;stroke:#000;stroke-width:2.08px;"/><path d="M323.193,206.221l1.28,-3.932l12.975,-6.116l-0.74,14.947l11.571,8.708l-12.812,5.812l-3.071,-1.081l-2.648,-4.442l-10.874,-0.63l0.001,-0.003l6.552,-8.915l-2.234,-4.348Z" style="fill:none;stroke:#000;stroke-width:2.08px;"/><path d="M326.4,234.973l11.615,19.486l-80.452,-5.484l43.138,-67.801l11.338,22.065l-21.785,29.642l36.146,2.092Z" style="fill:none;stroke:#000;stroke-width:2.08px;"/><g><path d="M212.5,188.354l-4.132,-13.304l-41.99,-19.749l2.347,50.935l-37.492,30.706l41.464,18.725l9.946,-3.951l8.588,-15.384l35.21,-3.086l-0.004,-0.011l-21.185,-29.852l7.248,-15.029Z" style="fill:none;stroke:#000;stroke-width:2.08px;"/><path d="M203.895,201.598l-2.134,-6.874l-21.695,-10.204l1.213,26.316l-19.371,15.865l21.423,9.674l5.139,-2.041l4.437,-7.949l18.191,-1.594l-0.002,-0.006l-10.945,-15.423l3.744,-7.764Z" style="fill:none;stroke:#000;stroke-width:2.08px;"/><path d="M200.126,206.597l-1.416,-4.559l-14.387,-6.767l0.804,17.453l-12.846,10.521l14.207,6.416l3.408,-1.354l2.942,-5.272l12.065,-1.057l-0.002,-0.004l-7.259,-10.228l2.484,-5.149Z" style="fill:none;stroke:#000;stroke-width:2.08px;"/><path d="M191.231,236.332l-11.334,20.303l78.378,-7.716l-41.957,-68.481l-11.066,22.945l21.193,29.863l-35.214,3.086Z" style="fill:none;stroke:#000;stroke-width:2.08px;"/></g></g><g><g><path d="M225.01,329.769l-9.68,9.756l1.629,47.648l43.064,-24.893l43.317,20.98l-2.28,-46.704l-7.859,-7.437l-17.154,-1.08l-18.379,-31.19l-0.008,0.008l-16.402,32.912l-16.248,-0Z" style="fill:none;stroke:#000;stroke-width:2.08px;"/><path d="M240.293,335.22l-5.369,5.412l0.903,26.432l23.89,-13.809l24.029,11.638l-1.264,-25.908l-4.36,-4.126l-9.516,-0.599l-10.196,-17.302l-0.004,0.004l-9.099,18.258l-9.014,-0Z" style="fill:none;stroke:#000;stroke-width:2.08px;"/><path d="M249.008,338.327l-2.913,2.936l0.49,14.336l12.957,-7.49l13.033,6.313l-0.686,-14.052l-2.364,-2.238l-5.162,-0.325l-5.529,-9.384l-0.003,0.002l-4.935,9.902l-4.888,0Z" style="fill:none;stroke:#000;stroke-width:2.08px;"/><path d="M276.047,328.039l22.64,1.426l-41.646,-69.052l-40.591,69.356l24.808,-0l16.408,-32.924l18.381,31.194Z" style="fill:none;stroke:#000;stroke-width:2.08px;"/><path d="M303.926,320.642l4.254,13.068l43.124,20.328l-2.459,-49.68l38.458,-28.94l-42.583,-19.317l-10.207,3.591l-8.8,14.764l-36.142,2.093l0.003,0.01l21.778,29.631l-7.426,14.452Z" style="fill:none;stroke:#000;stroke-width:2.08px;"/><path d="M315.759,309.539l2.36,7.249l23.923,11.277l-1.364,-27.56l21.334,-16.054l-23.623,-10.716l-5.662,1.993l-4.882,8.19l-20.049,1.161l0.002,0.006l12.081,16.437l-4.12,8.017Z" style="fill:none;stroke:#000;stroke-width:2.08px;"/><path d="M322.506,303.209l1.28,3.931l12.975,6.116l-0.74,-14.947l11.571,-8.707l-12.812,-5.812l-3.071,1.08l-2.648,4.442l-10.874,0.63l0.001,0.003l6.552,8.915l-2.234,4.349Z" style="fill:none;stroke:#000;stroke-width:2.08px;"/><path d="M325.713,274.456l11.615,-19.485l-80.452,5.483l43.138,67.801l11.338,-22.065l-21.785,-29.641l36.146,-2.093Z" style="fill:none;stroke:#000;stroke-width:2.08px;"/><g><path d="M211.813,321.075l-4.132,13.305l-41.99,19.749l2.347,-50.936l-37.492,-30.706l41.464,-18.725l9.946,3.952l8.588,15.384l35.21,3.085l-0.004,0.011l-21.186,29.853l7.249,15.028Z" style="fill:none;stroke:#000;stroke-width:2.08px;"/><path d="M203.208,307.832l-2.134,6.874l-21.695,10.203l1.213,-26.316l-19.371,-15.864l21.423,-9.675l5.139,2.042l4.437,7.948l18.191,1.594l-0.002,0.006l-10.945,15.423l3.744,7.765Z" style="fill:none;stroke:#000;stroke-width:2.08px;"/><path d="M199.439,302.833l-1.416,4.558l-14.387,6.767l0.804,-17.452l-12.846,-10.521l14.207,-6.416l3.408,1.354l2.942,5.271l12.065,1.057l-0.002,0.004l-7.259,10.228l2.484,5.15Z" style="fill:none;stroke:#000;stroke-width:2.08px;"/><path d="M190.544,273.098l-9.461,-17.566l76.505,4.978l-41.957,68.482l-11.067,-22.945l21.194,-29.863l-35.214,-3.086Z" style="fill:none;stroke:#000;stroke-width:2.08px;"/></g></g></g></svg>