<?xml version="1.0" encoding="UTF-8" standalone="no"?><!DOCTYPE svg PUBLIC "-//W3C//DTD SVG 1.1//EN" "http://www.w3.org/Graphics/SVG/1.1/DTD/svg11.dtd"><svg width="100%" height="100%" viewBox="0 0 1838 1299" version="1.1" xmlns="http://www.w3.org/2000/svg" xmlns:xlink="http://www.w3.org/1999/xlink" xml:space="preserve" xmlns:serif="http://www.serif.com/" style="fill-rule:evenodd;clip-rule:evenodd;stroke-linecap:round;stroke-linejoin:round;stroke-miterlimit:1.5;"><rect id="Unity" x="0.568" y="0" width="1837.16" height="1299" style="fill:none;"/><path d="M1692.49,167.668c-0,209.613 -573.79,221.922 -573.79,-0" style="fill:none;stroke:#ebebeb;stroke-width:52.08px;"/><path d="M271.408,935.635c-209.613,-0 -221.922,-573.79 0,-573.79" style="fill:none;stroke:#ebebeb;stroke-width:52.08px;"/><path d="M722.612,361.845c209.613,-0 221.923,573.79 0,573.79" style="fill:none;stroke:#ebebeb;stroke-width:52.08px;"/><path d="M1708.85,1068.22c0,-103.244 -139.203,-158.622 -280.481,-161.721m-12.827,-0.137c-141.278,0.069 -280.482,52.551 -280.482,161.858" style="fill:none;stroke:#ebebeb;stroke-width:52.08px;"/><g><path d="M1804.48,738.24c0,-287.794 -765.053,-304.695 -765.053,-0" style="fill:none;stroke:#ebebeb;stroke-width:52.08px;"/><path d="M1804.48,516.011c0,43.199 -17.237,80.294 -46.537,111.115c-67.209,70.696 -197.886,108.376 -329.576,110.97m-12.827,0.142c-134.419,0.32 -267.781,-35.983 -333.671,-111.112c-26.804,-30.564 -42.442,-67.552 -42.442,-111.115" style="fill:none;stroke:#ebebeb;stroke-width:52.08px;"/><path d="M1428.37,906.497l-0,9.489l-12.827,-0l-0,-9.626c4.275,-0.002 8.552,0.044 12.827,0.137Zm-12.827,-168.259l-0,-399.973l12.827,0l-0,399.831c-4.275,0.084 -8.552,0.132 -12.827,0.142Z" style="fill:none;stroke:#ebebeb;stroke-width:62.5px;"/></g><path d="M1415.54,906.36l-0,-168.122c4.275,-0.01 8.552,-0.058 12.827,-0.142l-0,168.401c-4.275,-0.093 -8.552,-0.139 -12.827,-0.137Z" style="fill:none;stroke:#ebebeb;stroke-width:62.5px;"/><path d="M124.301,574.955l745.22,-3.671" style="fill:none;stroke:#ebebeb;stroke-width:62.5px;"/><path d="M124.301,743.822l745.22,-3.671" style="fill:none;stroke:#ebebeb;stroke-width:62.5px;"/></svg>