<?xml version="1.0" encoding="UTF-8" standalone="no"?><!DOCTYPE svg PUBLIC "-//W3C//DTD SVG 1.1//EN" "http://www.w3.org/Graphics/SVG/1.1/DTD/svg11.dtd"><svg width="100%" height="100%" viewBox="0 0 1838 1299" version="1.1" xmlns="http://www.w3.org/2000/svg" xmlns:xlink="http://www.w3.org/1999/xlink" xml:space="preserve" xmlns:serif="http://www.serif.com/" style="fill-rule:evenodd;clip-rule:evenodd;stroke-linecap:round;stroke-linejoin:round;stroke-miterlimit:1.5;"><rect id="Voyage" x="0.839" y="0" width="1837.16" height="1299" style="fill:none;"/><rect x="450.031" y="386.773" width="1013.06" height="47.293" style="fill:#ebebeb;"/><g><g><path d="M448.862,406.786l-172.078,-150.597l54.52,-11.432l185.142,162.029l-185.142,162.03l-54.52,-11.433l172.078,-150.597Z" style="fill:#ebebeb;stroke:#ebebeb;stroke-width:2.27px;"/></g><g><path d="M537.153,406.786l-172.078,-150.597l54.52,-11.432l185.142,162.029l-185.142,162.03l-54.52,-11.433l172.078,-150.597Z" style="fill:#ebebeb;stroke:#ebebeb;stroke-width:2.27px;"/></g><g><path d="M625.444,406.786l-172.078,-150.597l54.52,-11.432l185.142,162.029l-185.142,162.03l-54.52,-11.433l172.078,-150.597Z" style="fill:#ebebeb;stroke:#ebebeb;stroke-width:2.27px;"/></g></g><g><g><path d="M865.106,406.786l-172.078,-150.597l54.52,-11.432l185.142,162.029l-185.142,162.03l-54.52,-11.433l172.078,-150.597Z" style="fill:#ebebeb;stroke:#ebebeb;stroke-width:2.27px;"/></g><g><g><path d="M953.397,406.786l-172.078,-150.597l54.52,-11.432l185.142,162.029l-185.142,162.03l-54.52,-11.433l172.078,-150.597Z" style="fill:#ebebeb;stroke:#ebebeb;stroke-width:2.27px;"/></g><g><path d="M1041.69,406.786l-172.078,-150.597l54.52,-11.432l185.142,162.029l-185.142,162.03l-54.52,-11.433l172.078,-150.597Z" style="fill:#ebebeb;stroke:#ebebeb;stroke-width:2.27px;"/></g></g></g><g><g><path d="M1281.35,406.786l-172.078,-150.597l54.52,-11.432l185.142,162.029l-185.142,162.03l-54.52,-11.433l172.078,-150.597Z" style="fill:#ebebeb;stroke:#ebebeb;stroke-width:2.27px;"/></g><g><path d="M1369.64,406.786l-172.078,-150.597l54.52,-11.432l185.142,162.029l-185.142,162.03l-54.52,-11.433l172.078,-150.597Z" style="fill:#ebebeb;stroke:#ebebeb;stroke-width:2.27px;"/></g><g><path d="M1457.93,406.786l-172.078,-150.597l54.52,-11.432l185.142,162.029l-185.142,162.03l-54.52,-11.433l172.078,-150.597Z" style="fill:#ebebeb;stroke:#ebebeb;stroke-width:2.27px;"/></g></g><rect x="450.031" y="837.425" width="1013.06" height="47.293" style="fill:#ebebeb;"/><g><g><path d="M448.862,857.438l-172.078,-150.597l54.52,-11.432l185.142,162.029l-185.142,162.03l-54.52,-11.433l172.078,-150.597Z" style="fill:#ebebeb;stroke:#ebebeb;stroke-width:2.27px;"/></g><g><path d="M537.153,857.438l-172.078,-150.597l54.52,-11.432l185.142,162.029l-185.142,162.03l-54.52,-11.433l172.078,-150.597Z" style="fill:#ebebeb;stroke:#ebebeb;stroke-width:2.27px;"/></g><g><path d="M625.444,857.438l-172.078,-150.597l54.52,-11.432l185.142,162.029l-185.142,162.03l-54.52,-11.433l172.078,-150.597Z" style="fill:#ebebeb;stroke:#ebebeb;stroke-width:2.27px;"/></g></g><g><g><path d="M865.106,857.438l-172.078,-150.597l54.52,-11.432l185.142,162.029l-185.142,162.03l-54.52,-11.433l172.078,-150.597Z" style="fill:#ebebeb;stroke:#ebebeb;stroke-width:2.27px;"/></g><g><g><path d="M953.397,857.438l-172.078,-150.597l54.52,-11.432l185.142,162.029l-185.142,162.03l-54.52,-11.433l172.078,-150.597Z" style="fill:#ebebeb;stroke:#ebebeb;stroke-width:2.27px;"/></g><g><path d="M1041.69,857.438l-172.078,-150.597l54.52,-11.432l185.142,162.029l-185.142,162.03l-54.52,-11.433l172.078,-150.597Z" style="fill:#ebebeb;stroke:#ebebeb;stroke-width:2.27px;"/></g></g></g><g><g><path d="M1281.35,857.438l-172.078,-150.597l54.52,-11.432l185.142,162.029l-185.142,162.03l-54.52,-11.433l172.078,-150.597Z" style="fill:#ebebeb;stroke:#ebebeb;stroke-width:2.27px;"/></g><g><path d="M1369.64,857.438l-172.078,-150.597l54.52,-11.432l185.142,162.029l-185.142,162.03l-54.52,-11.433l172.078,-150.597Z" style="fill:#ebebeb;stroke:#ebebeb;stroke-width:2.27px;"/></g><g><path d="M1457.93,857.438l-172.078,-150.597l54.52,-11.432l185.142,162.029l-185.142,162.03l-54.52,-11.433l172.078,-150.597Z" style="fill:#ebebeb;stroke:#ebebeb;stroke-width:2.27px;"/></g></g></svg>